<mxfile host="Electron" agent="Mozilla/5.0 (Windows NT 10.0; Win64; x64) AppleWebKit/537.36 (KHTML, like Gecko) draw.io/26.1.1 Chrome/132.0.6834.210 Electron/34.3.3 Safari/537.36" version="26.1.1" pages="7">
  <diagram name="3" id="WOpIre8T_OWHD56gAmkg">
    <mxGraphModel dx="1235" dy="844" grid="1" gridSize="10" guides="1" tooltips="1" connect="1" arrows="1" fold="1" page="1" pageScale="1" pageWidth="827" pageHeight="1169" math="0" shadow="0">
      <root>
        <mxCell id="5Z5chwch2wpYzHvmczRe-0" />
        <mxCell id="5Z5chwch2wpYzHvmczRe-1" parent="5Z5chwch2wpYzHvmczRe-0" />
        <mxCell id="NXmRSywtpvLNV53BZj0m-1" value="&lt;font style=&quot;font-size: 18px;&quot;&gt;One MacroTask&lt;/font&gt;" style="rounded=0;whiteSpace=wrap;html=1;fillColor=#FBC02D;" vertex="1" parent="5Z5chwch2wpYzHvmczRe-1">
          <mxGeometry x="305.5" y="78" width="250" height="40" as="geometry" />
        </mxCell>
        <mxCell id="NXmRSywtpvLNV53BZj0m-0" value="&lt;font style=&quot;font-size: 18px;&quot;&gt;One MacroTask&lt;/font&gt;" style="rounded=0;whiteSpace=wrap;html=1;fillColor=#FBC02D;" vertex="1" parent="5Z5chwch2wpYzHvmczRe-1">
          <mxGeometry x="313.5" y="68" width="250" height="40" as="geometry" />
        </mxCell>
        <mxCell id="NXmRSywtpvLNV53BZj0m-4" value="" style="ellipse;shape=cloud;whiteSpace=wrap;html=1;fillColor=#464646;gradientColor=none;strokeColor=#666666;" vertex="1" parent="5Z5chwch2wpYzHvmczRe-1">
          <mxGeometry x="240" y="45" width="378" height="91" as="geometry" />
        </mxCell>
        <mxCell id="NXmRSywtpvLNV53BZj0m-3" value="" style="endArrow=classic;html=1;rounded=0;exitX=1.016;exitY=0.495;exitDx=0;exitDy=0;entryX=0.5;entryY=0;entryDx=0;entryDy=0;strokeWidth=5;exitPerimeter=0;" edge="1" parent="5Z5chwch2wpYzHvmczRe-1" target="NXmRSywtpvLNV53BZj0m-2">
          <mxGeometry width="50" height="50" relative="1" as="geometry">
            <mxPoint x="549" y="785" as="sourcePoint" />
            <mxPoint x="450.5" y="86" as="targetPoint" />
            <Array as="points">
              <mxPoint x="635.5" y="785" />
              <mxPoint x="635.5" y="692" />
              <mxPoint x="636" y="38" />
              <mxPoint x="421" y="38" />
            </Array>
          </mxGeometry>
        </mxCell>
        <mxCell id="5Z5chwch2wpYzHvmczRe-2" value="" style="endArrow=classic;html=1;rounded=0;exitX=0.5;exitY=1;exitDx=0;exitDy=0;entryX=0.5;entryY=0;entryDx=0;entryDy=0;" parent="5Z5chwch2wpYzHvmczRe-1" source="5Z5chwch2wpYzHvmczRe-30" target="5Z5chwch2wpYzHvmczRe-16" edge="1">
          <mxGeometry width="50" height="50" relative="1" as="geometry">
            <mxPoint x="402" y="715" as="sourcePoint" />
            <mxPoint x="452" y="665" as="targetPoint" />
          </mxGeometry>
        </mxCell>
        <mxCell id="5Z5chwch2wpYzHvmczRe-3" value="" style="endArrow=classic;html=1;rounded=0;exitX=0.5;exitY=1;exitDx=0;exitDy=0;entryX=0.5;entryY=0;entryDx=0;entryDy=0;" parent="5Z5chwch2wpYzHvmczRe-1" source="5Z5chwch2wpYzHvmczRe-25" target="5Z5chwch2wpYzHvmczRe-30" edge="1">
          <mxGeometry width="50" height="50" relative="1" as="geometry">
            <mxPoint x="400" y="645" as="sourcePoint" />
            <mxPoint x="450" y="595" as="targetPoint" />
          </mxGeometry>
        </mxCell>
        <mxCell id="5Z5chwch2wpYzHvmczRe-4" style="edgeStyle=orthogonalEdgeStyle;rounded=0;orthogonalLoop=1;jettySize=auto;html=1;exitX=0.5;exitY=1;exitDx=0;exitDy=0;entryX=0.5;entryY=0;entryDx=0;entryDy=0;" parent="5Z5chwch2wpYzHvmczRe-1" target="5Z5chwch2wpYzHvmczRe-9" edge="1">
          <mxGeometry relative="1" as="geometry">
            <mxPoint x="420" y="125" as="sourcePoint" />
          </mxGeometry>
        </mxCell>
        <mxCell id="5Z5chwch2wpYzHvmczRe-5" value="" style="shape=ellipse;fillColor=#0065FF;strokeColor=none;html=1;sketch=0;" parent="5Z5chwch2wpYzHvmczRe-1" vertex="1">
          <mxGeometry x="414.5" y="615" width="10" height="10" as="geometry" />
        </mxCell>
        <mxCell id="5Z5chwch2wpYzHvmczRe-7" value="&lt;font style=&quot;font-size: 18px;&quot;&gt;All MicroTasks&lt;/font&gt;" style="rounded=0;whiteSpace=wrap;html=1;fillColor=#FB8C00;" parent="5Z5chwch2wpYzHvmczRe-1" vertex="1">
          <mxGeometry x="294.25" y="908" width="250" height="40" as="geometry" />
        </mxCell>
        <mxCell id="5Z5chwch2wpYzHvmczRe-8" style="edgeStyle=orthogonalEdgeStyle;rounded=0;orthogonalLoop=1;jettySize=auto;html=1;exitX=0.5;exitY=1;exitDx=0;exitDy=0;entryX=0.5;entryY=0;entryDx=0;entryDy=0;" parent="5Z5chwch2wpYzHvmczRe-1" source="5Z5chwch2wpYzHvmczRe-9" target="5Z5chwch2wpYzHvmczRe-10" edge="1">
          <mxGeometry relative="1" as="geometry" />
        </mxCell>
        <mxCell id="5Z5chwch2wpYzHvmczRe-9" value="&lt;font style=&quot;font-size: 18px;&quot;&gt;All MicroTasks&lt;/font&gt;" style="rounded=0;whiteSpace=wrap;html=1;fillColor=#FB8C00;" parent="5Z5chwch2wpYzHvmczRe-1" vertex="1">
          <mxGeometry x="295.25" y="155" width="250" height="40" as="geometry" />
        </mxCell>
        <mxCell id="5Z5chwch2wpYzHvmczRe-10" value="&lt;font style=&quot;font-size: 18px;&quot;&gt;Next Frame?&lt;/font&gt;" style="rhombus;whiteSpace=wrap;html=1;fillColor=#EEEEEE;" parent="5Z5chwch2wpYzHvmczRe-1" vertex="1">
          <mxGeometry x="295.25" y="227" width="250" height="48" as="geometry" />
        </mxCell>
        <mxCell id="5Z5chwch2wpYzHvmczRe-11" style="edgeStyle=orthogonalEdgeStyle;rounded=0;orthogonalLoop=1;jettySize=auto;html=1;exitX=0.5;exitY=1;exitDx=0;exitDy=0;entryX=0.5;entryY=0;entryDx=0;entryDy=0;" parent="5Z5chwch2wpYzHvmczRe-1" source="5Z5chwch2wpYzHvmczRe-12" target="5Z5chwch2wpYzHvmczRe-15" edge="1">
          <mxGeometry relative="1" as="geometry" />
        </mxCell>
        <mxCell id="5Z5chwch2wpYzHvmczRe-12" value="&lt;font style=&quot;font-size: 18px; color: rgb(255, 255, 255);&quot;&gt;All requestAnimationFrame()&lt;/font&gt;" style="rounded=0;whiteSpace=wrap;html=1;fillColor=#43A047;" parent="5Z5chwch2wpYzHvmczRe-1" vertex="1">
          <mxGeometry x="295.5" y="310" width="250" height="38" as="geometry" />
        </mxCell>
        <mxCell id="5Z5chwch2wpYzHvmczRe-13" value="" style="endArrow=classic;html=1;rounded=0;entryX=0.5;entryY=0;entryDx=0;entryDy=0;exitX=0.5;exitY=1;exitDx=0;exitDy=0;" parent="5Z5chwch2wpYzHvmczRe-1" source="5Z5chwch2wpYzHvmczRe-10" target="5Z5chwch2wpYzHvmczRe-12" edge="1">
          <mxGeometry width="50" height="50" relative="1" as="geometry">
            <mxPoint x="495.75" y="280.77499999999986" as="sourcePoint" />
            <mxPoint x="365.25" y="391.55" as="targetPoint" />
            <Array as="points" />
          </mxGeometry>
        </mxCell>
        <mxCell id="5Z5chwch2wpYzHvmczRe-14" value="&lt;font style=&quot;font-size: 18px;&quot;&gt;Yes&lt;/font&gt;" style="text;html=1;align=center;verticalAlign=middle;whiteSpace=wrap;rounded=0;" parent="5Z5chwch2wpYzHvmczRe-1" vertex="1">
          <mxGeometry x="412.5" y="270.55" width="60" height="30" as="geometry" />
        </mxCell>
        <mxCell id="5Z5chwch2wpYzHvmczRe-15" value="&lt;font style=&quot;font-size: 18px;&quot;&gt;All MicroTasks&lt;/font&gt;" style="rounded=0;whiteSpace=wrap;html=1;fillColor=#FB8C00;" parent="5Z5chwch2wpYzHvmczRe-1" vertex="1">
          <mxGeometry x="295.5" y="375" width="250" height="40" as="geometry" />
        </mxCell>
        <mxCell id="5Z5chwch2wpYzHvmczRe-16" value="&lt;font style=&quot;font-size: 18px;&quot;&gt;Free time?*&lt;/font&gt;" style="rhombus;whiteSpace=wrap;html=1;fillColor=#EEEEEE;" parent="5Z5chwch2wpYzHvmczRe-1" vertex="1">
          <mxGeometry x="294.5" y="763" width="250" height="41.55" as="geometry" />
        </mxCell>
        <mxCell id="5Z5chwch2wpYzHvmczRe-17" value="" style="edgeStyle=orthogonalEdgeStyle;rounded=0;orthogonalLoop=1;jettySize=auto;html=1;" parent="5Z5chwch2wpYzHvmczRe-1" source="5Z5chwch2wpYzHvmczRe-18" target="5Z5chwch2wpYzHvmczRe-7" edge="1">
          <mxGeometry relative="1" as="geometry" />
        </mxCell>
        <mxCell id="5Z5chwch2wpYzHvmczRe-18" value="&lt;font style=&quot;font-size: 18px; color: rgb(255, 255, 255);&quot;&gt;One requestIdleCallback()&lt;/font&gt;" style="rounded=0;whiteSpace=wrap;html=1;fillColor=#8E24AA;" parent="5Z5chwch2wpYzHvmczRe-1" vertex="1">
          <mxGeometry x="294.5" y="833" width="250" height="40" as="geometry" />
        </mxCell>
        <mxCell id="5Z5chwch2wpYzHvmczRe-19" style="edgeStyle=orthogonalEdgeStyle;rounded=0;orthogonalLoop=1;jettySize=auto;html=1;exitX=0.5;exitY=1;exitDx=0;exitDy=0;entryX=0.503;entryY=0.037;entryDx=0;entryDy=0;entryPerimeter=0;" parent="5Z5chwch2wpYzHvmczRe-1" source="5Z5chwch2wpYzHvmczRe-20" target="5Z5chwch2wpYzHvmczRe-25" edge="1">
          <mxGeometry relative="1" as="geometry" />
        </mxCell>
        <mxCell id="5Z5chwch2wpYzHvmczRe-20" value="&lt;font style=&quot;font-size: 18px; color: rgb(255, 255, 255);&quot;&gt;Render&lt;/font&gt;" style="rounded=1;whiteSpace=wrap;html=1;fillColor=#1565C0;strokeColor=#000000;shadow=1;glass=0;strokeWidth=6;" parent="5Z5chwch2wpYzHvmczRe-1" vertex="1">
          <mxGeometry x="295.5" y="506.55" width="250" height="40" as="geometry" />
        </mxCell>
        <mxCell id="5Z5chwch2wpYzHvmczRe-21" value="&lt;font style=&quot;font-size: 18px;&quot;&gt;No&lt;/font&gt;" style="text;html=1;align=center;verticalAlign=middle;whiteSpace=wrap;rounded=0;" parent="5Z5chwch2wpYzHvmczRe-1" vertex="1">
          <mxGeometry x="530" y="227" width="60" height="30" as="geometry" />
        </mxCell>
        <mxCell id="5Z5chwch2wpYzHvmczRe-22" value="" style="endArrow=classic;html=1;rounded=0;exitX=0.5;exitY=1;exitDx=0;exitDy=0;entryX=0.5;entryY=0;entryDx=0;entryDy=0;" parent="5Z5chwch2wpYzHvmczRe-1" source="5Z5chwch2wpYzHvmczRe-16" target="5Z5chwch2wpYzHvmczRe-18" edge="1">
          <mxGeometry width="50" height="50" relative="1" as="geometry">
            <mxPoint x="475" y="893" as="sourcePoint" />
            <mxPoint x="525" y="843" as="targetPoint" />
          </mxGeometry>
        </mxCell>
        <mxCell id="5Z5chwch2wpYzHvmczRe-24" value="&lt;font style=&quot;font-size: 18px;&quot;&gt;Yes&lt;/font&gt;" style="text;html=1;align=center;verticalAlign=middle;whiteSpace=wrap;rounded=0;" parent="5Z5chwch2wpYzHvmczRe-1" vertex="1">
          <mxGeometry x="408" y="801" width="60" height="30" as="geometry" />
        </mxCell>
        <mxCell id="5Z5chwch2wpYzHvmczRe-25" value="&lt;font style=&quot;font-size: 20px;&quot;&gt;All MicroTasks&lt;/font&gt;" style="rounded=0;whiteSpace=wrap;html=1;fillColor=#FB8C00;glass=0;gradientColor=none;" parent="5Z5chwch2wpYzHvmczRe-1" vertex="1">
          <mxGeometry x="294.5" y="566.55" width="250" height="40" as="geometry" />
        </mxCell>
        <mxCell id="5Z5chwch2wpYzHvmczRe-26" value="" style="endArrow=none;html=1;rounded=0;entryX=0.5;entryY=1;entryDx=0;entryDy=0;" parent="5Z5chwch2wpYzHvmczRe-1" source="5Z5chwch2wpYzHvmczRe-28" target="5Z5chwch2wpYzHvmczRe-7" edge="1">
          <mxGeometry width="50" height="50" relative="1" as="geometry">
            <mxPoint x="419.5" y="733" as="sourcePoint" />
            <mxPoint x="475" y="793" as="targetPoint" />
            <Array as="points">
              <mxPoint x="264.5" y="733" />
              <mxPoint x="264.5" y="988" />
              <mxPoint x="419.5" y="988" />
            </Array>
          </mxGeometry>
        </mxCell>
        <mxCell id="5Z5chwch2wpYzHvmczRe-27" value="" style="edgeStyle=orthogonalEdgeStyle;rounded=0;orthogonalLoop=1;jettySize=auto;html=1;endArrow=none;startFill=0;" parent="5Z5chwch2wpYzHvmczRe-1" source="5Z5chwch2wpYzHvmczRe-28" target="5Z5chwch2wpYzHvmczRe-30" edge="1">
          <mxGeometry relative="1" as="geometry" />
        </mxCell>
        <mxCell id="5Z5chwch2wpYzHvmczRe-28" value="" style="shape=ellipse;fillColor=#0065FF;strokeColor=none;html=1;sketch=0;" parent="5Z5chwch2wpYzHvmczRe-1" vertex="1">
          <mxGeometry x="414.5" y="728" width="10" height="10" as="geometry" />
        </mxCell>
        <mxCell id="5Z5chwch2wpYzHvmczRe-29" value="&lt;font style=&quot;font-size: 18px;&quot;&gt;No&lt;/font&gt;" style="text;html=1;align=center;verticalAlign=middle;whiteSpace=wrap;rounded=0;" parent="5Z5chwch2wpYzHvmczRe-1" vertex="1">
          <mxGeometry x="533.25" y="755" width="60" height="30" as="geometry" />
        </mxCell>
        <mxCell id="5Z5chwch2wpYzHvmczRe-30" value="&lt;font style=&quot;color: rgb(0, 0, 0);&quot;&gt;&lt;span style=&quot;font-size: 18px;&quot;&gt;&lt;font style=&quot;color: rgb(0, 0, 0);&quot;&gt;No Macrotasks?&lt;/font&gt;&lt;/span&gt;&lt;/font&gt;" style="rhombus;whiteSpace=wrap;html=1;fillColor=#EEEEEE;" parent="5Z5chwch2wpYzHvmczRe-1" vertex="1">
          <mxGeometry x="294.5" y="645.5" width="250" height="60" as="geometry" />
        </mxCell>
        <mxCell id="5Z5chwch2wpYzHvmczRe-31" value="&lt;font style=&quot;font-size: 18px;&quot;&gt;Yes&lt;/font&gt;" style="text;html=1;align=center;verticalAlign=middle;whiteSpace=wrap;rounded=0;" parent="5Z5chwch2wpYzHvmczRe-1" vertex="1">
          <mxGeometry x="408" y="701.5" width="60" height="30" as="geometry" />
        </mxCell>
        <mxCell id="5Z5chwch2wpYzHvmczRe-32" value="" style="endArrow=none;html=1;rounded=0;exitX=1;exitY=0.5;exitDx=0;exitDy=0;strokeWidth=5;" parent="5Z5chwch2wpYzHvmczRe-1" edge="1">
          <mxGeometry width="50" height="50" relative="1" as="geometry">
            <mxPoint x="604.5" y="674.5" as="sourcePoint" />
            <mxPoint x="604.5" y="675" as="targetPoint" />
          </mxGeometry>
        </mxCell>
        <mxCell id="5Z5chwch2wpYzHvmczRe-33" value="" style="endArrow=none;html=1;rounded=0;exitX=1;exitY=0.5;exitDx=0;exitDy=0;strokeWidth=5;" parent="5Z5chwch2wpYzHvmczRe-1" source="5Z5chwch2wpYzHvmczRe-37" edge="1">
          <mxGeometry width="50" height="50" relative="1" as="geometry">
            <mxPoint x="542.5" y="675" as="sourcePoint" />
            <mxPoint x="640" y="675" as="targetPoint" />
          </mxGeometry>
        </mxCell>
        <mxCell id="5Z5chwch2wpYzHvmczRe-34" value="&lt;font style=&quot;font-size: 18px;&quot;&gt;No&lt;/font&gt;" style="text;html=1;align=center;verticalAlign=middle;whiteSpace=wrap;rounded=0;" parent="5Z5chwch2wpYzHvmczRe-1" vertex="1">
          <mxGeometry x="534.5" y="648" width="57.5" height="27" as="geometry" />
        </mxCell>
        <mxCell id="5Z5chwch2wpYzHvmczRe-35" value="&lt;font style=&quot;font-size: 18px;&quot;&gt;&lt;span style=&quot;&quot; data-src-align=&quot;14:1&quot; class=&quot;EzKURWReUAB5oZgtQNkl&quot;&gt;Render?&lt;/span&gt;&lt;/font&gt;" style="rhombus;whiteSpace=wrap;html=1;fillColor=#EEEEEE;" parent="5Z5chwch2wpYzHvmczRe-1" vertex="1">
          <mxGeometry x="295.5" y="435" width="250" height="41.55" as="geometry" />
        </mxCell>
        <mxCell id="5Z5chwch2wpYzHvmczRe-36" value="" style="endArrow=none;html=1;rounded=0;exitX=1;exitY=0.5;exitDx=0;exitDy=0;strokeWidth=5;" parent="5Z5chwch2wpYzHvmczRe-1" source="5Z5chwch2wpYzHvmczRe-30" target="5Z5chwch2wpYzHvmczRe-37" edge="1">
          <mxGeometry width="50" height="50" relative="1" as="geometry">
            <mxPoint x="543" y="676" as="sourcePoint" />
            <mxPoint x="640" y="675" as="targetPoint" />
          </mxGeometry>
        </mxCell>
        <mxCell id="5Z5chwch2wpYzHvmczRe-37" value="" style="shape=ellipse;fillColor=#0065FF;strokeColor=none;html=1;sketch=0;" parent="5Z5chwch2wpYzHvmczRe-1" vertex="1">
          <mxGeometry x="630" y="670.5" width="10" height="10" as="geometry" />
        </mxCell>
        <mxCell id="5Z5chwch2wpYzHvmczRe-38" value="&lt;font style=&quot;font-size: 18px;&quot;&gt;Yes&lt;/font&gt;" style="text;html=1;align=center;verticalAlign=middle;whiteSpace=wrap;rounded=0;" parent="5Z5chwch2wpYzHvmczRe-1" vertex="1">
          <mxGeometry x="412.5" y="471" width="60" height="30" as="geometry" />
        </mxCell>
        <mxCell id="5Z5chwch2wpYzHvmczRe-39" value="&lt;font style=&quot;font-size: 18px;&quot;&gt;No&lt;/font&gt;" style="text;html=1;align=center;verticalAlign=middle;whiteSpace=wrap;rounded=0;" parent="5Z5chwch2wpYzHvmczRe-1" vertex="1">
          <mxGeometry x="533.75" y="430" width="57.5" height="27" as="geometry" />
        </mxCell>
        <mxCell id="5Z5chwch2wpYzHvmczRe-40" value="" style="endArrow=none;html=1;rounded=0;entryX=1;entryY=0.5;entryDx=0;entryDy=0;exitX=1;exitY=0.5;exitDx=0;exitDy=0;" parent="5Z5chwch2wpYzHvmczRe-1" source="5Z5chwch2wpYzHvmczRe-5" target="5Z5chwch2wpYzHvmczRe-35" edge="1">
          <mxGeometry width="50" height="50" relative="1" as="geometry">
            <mxPoint x="410" y="635" as="sourcePoint" />
            <mxPoint x="460" y="585" as="targetPoint" />
            <Array as="points">
              <mxPoint x="590" y="620" />
              <mxPoint x="590" y="455" />
            </Array>
          </mxGeometry>
        </mxCell>
        <mxCell id="5Z5chwch2wpYzHvmczRe-41" value="" style="endArrow=none;html=1;rounded=0;exitX=1;exitY=0.5;exitDx=0;exitDy=0;" parent="5Z5chwch2wpYzHvmczRe-1" source="5Z5chwch2wpYzHvmczRe-10" edge="1">
          <mxGeometry width="50" height="50" relative="1" as="geometry">
            <mxPoint x="450" y="495" as="sourcePoint" />
            <mxPoint x="590" y="455" as="targetPoint" />
            <Array as="points">
              <mxPoint x="590" y="251" />
            </Array>
          </mxGeometry>
        </mxCell>
        <mxCell id="5Z5chwch2wpYzHvmczRe-42" value="" style="shape=ellipse;fillColor=#0065FF;strokeColor=none;html=1;sketch=0;" parent="5Z5chwch2wpYzHvmczRe-1" vertex="1">
          <mxGeometry x="584.25" y="449.78" width="10" height="10" as="geometry" />
        </mxCell>
        <mxCell id="5Z5chwch2wpYzHvmczRe-43" value="" style="endArrow=classic;html=1;rounded=0;exitX=0.5;exitY=1;exitDx=0;exitDy=0;entryX=0.5;entryY=0;entryDx=0;entryDy=0;" parent="5Z5chwch2wpYzHvmczRe-1" source="5Z5chwch2wpYzHvmczRe-15" target="5Z5chwch2wpYzHvmczRe-35" edge="1">
          <mxGeometry width="50" height="50" relative="1" as="geometry">
            <mxPoint x="360" y="505" as="sourcePoint" />
            <mxPoint x="410" y="455" as="targetPoint" />
          </mxGeometry>
        </mxCell>
        <mxCell id="5Z5chwch2wpYzHvmczRe-44" value="" style="endArrow=classic;html=1;rounded=0;exitX=0.5;exitY=1;exitDx=0;exitDy=0;entryX=0.5;entryY=0;entryDx=0;entryDy=0;" parent="5Z5chwch2wpYzHvmczRe-1" source="5Z5chwch2wpYzHvmczRe-35" target="5Z5chwch2wpYzHvmczRe-20" edge="1">
          <mxGeometry width="50" height="50" relative="1" as="geometry">
            <mxPoint x="360" y="505" as="sourcePoint" />
            <mxPoint x="410" y="455" as="targetPoint" />
          </mxGeometry>
        </mxCell>
        <mxCell id="5Z5chwch2wpYzHvmczRe-45" value="" style="ellipse;shape=cloud;whiteSpace=wrap;html=1;fillColor=#464646;gradientColor=none;strokeColor=#666666;" parent="5Z5chwch2wpYzHvmczRe-1" vertex="1">
          <mxGeometry x="239.25" y="353" width="360" height="80" as="geometry" />
        </mxCell>
        <mxCell id="ImM1UuR_fFCmhWb7VvBw-0" value="" style="ellipse;shape=cloud;whiteSpace=wrap;html=1;fillColor=#464646;gradientColor=none;strokeColor=#666666;" parent="5Z5chwch2wpYzHvmczRe-1" vertex="1">
          <mxGeometry x="239.25" y="546.55" width="360" height="80" as="geometry" />
        </mxCell>
        <mxCell id="ImM1UuR_fFCmhWb7VvBw-1" value="" style="ellipse;shape=cloud;whiteSpace=wrap;html=1;fillColor=#464646;gradientColor=none;strokeColor=#666666;" parent="5Z5chwch2wpYzHvmczRe-1" vertex="1">
          <mxGeometry x="234.25" y="885" width="360" height="80" as="geometry" />
        </mxCell>
        <mxCell id="OV4KnT3gr7f-I7G_q_uN-0" value="" style="ellipse;shape=cloud;whiteSpace=wrap;html=1;fillColor=#464646;gradientColor=none;strokeColor=#666666;" parent="5Z5chwch2wpYzHvmczRe-1" vertex="1">
          <mxGeometry x="140" y="535" width="547" height="578.45" as="geometry" />
        </mxCell>
        <mxCell id="WoxrZ696siuIqLn3HaXy-0" value="" style="ellipse;shape=cloud;whiteSpace=wrap;html=1;fillColor=#464646;gradientColor=none;strokeColor=#666666;" parent="5Z5chwch2wpYzHvmczRe-1" vertex="1">
          <mxGeometry x="220.5" y="173.1" width="419.5" height="276.68" as="geometry" />
        </mxCell>
        <mxCell id="b9_Mzfre4hkzwLuS2cWC-0" value="" style="ellipse;shape=cloud;whiteSpace=wrap;html=1;fillColor=#464646;gradientColor=none;strokeColor=#666666;" parent="5Z5chwch2wpYzHvmczRe-1" vertex="1">
          <mxGeometry x="155.62" y="267.55" width="515.75" height="470.45" as="geometry" />
        </mxCell>
        <mxCell id="BexbrjHrRa31vE1YjjiC-0" value="" style="ellipse;shape=cloud;whiteSpace=wrap;html=1;fillColor=#464646;gradientColor=none;strokeColor=#666666;" parent="5Z5chwch2wpYzHvmczRe-1" vertex="1">
          <mxGeometry x="237.25" y="132" width="360" height="80" as="geometry" />
        </mxCell>
        <mxCell id="NXmRSywtpvLNV53BZj0m-2" value="&lt;font style=&quot;font-size: 18px;&quot;&gt;One MacroTask&lt;/font&gt;" style="rounded=0;whiteSpace=wrap;html=1;fillColor=#FBC02D;" vertex="1" parent="5Z5chwch2wpYzHvmczRe-1">
          <mxGeometry x="295.5" y="86" width="250" height="40" as="geometry" />
        </mxCell>
      </root>
    </mxGraphModel>
  </diagram>
  <diagram name="3a" id="7WThPi9XpQ88f7jPYC6v">
    <mxGraphModel dx="420" dy="287" grid="1" gridSize="10" guides="1" tooltips="1" connect="1" arrows="1" fold="1" page="1" pageScale="1" pageWidth="827" pageHeight="1169" math="0" shadow="0">
      <root>
        <mxCell id="s6g-bE5c9c6niWiSLbd3-0" />
        <mxCell id="s6g-bE5c9c6niWiSLbd3-1" parent="s6g-bE5c9c6niWiSLbd3-0" />
        <mxCell id="s6g-bE5c9c6niWiSLbd3-3" value="&lt;font style=&quot;font-size: 18px;&quot;&gt;One MacroTask&lt;/font&gt;" style="rounded=0;whiteSpace=wrap;html=1;fillColor=#FBC02D;" vertex="1" parent="s6g-bE5c9c6niWiSLbd3-1">
          <mxGeometry x="313.5" y="70" width="250" height="40" as="geometry" />
        </mxCell>
        <mxCell id="s6g-bE5c9c6niWiSLbd3-2" value="&lt;font style=&quot;font-size: 18px;&quot;&gt;One MacroTask&lt;/font&gt;" style="rounded=0;whiteSpace=wrap;html=1;fillColor=#FBC02D;" vertex="1" parent="s6g-bE5c9c6niWiSLbd3-1">
          <mxGeometry x="305.5" y="78" width="250" height="40" as="geometry" />
        </mxCell>
        <mxCell id="s6g-bE5c9c6niWiSLbd3-5" value="" style="endArrow=classic;html=1;rounded=0;exitX=1.016;exitY=0.495;exitDx=0;exitDy=0;entryX=0.5;entryY=0;entryDx=0;entryDy=0;strokeWidth=5;exitPerimeter=0;" edge="1" parent="s6g-bE5c9c6niWiSLbd3-1" target="s6g-bE5c9c6niWiSLbd3-54">
          <mxGeometry width="50" height="50" relative="1" as="geometry">
            <mxPoint x="549" y="785" as="sourcePoint" />
            <mxPoint x="450.5" y="86" as="targetPoint" />
            <Array as="points">
              <mxPoint x="635.5" y="785" />
              <mxPoint x="635.5" y="692" />
              <mxPoint x="636" y="38" />
              <mxPoint x="421" y="38" />
            </Array>
          </mxGeometry>
        </mxCell>
        <mxCell id="s6g-bE5c9c6niWiSLbd3-6" value="" style="endArrow=classic;html=1;rounded=0;exitX=0.5;exitY=1;exitDx=0;exitDy=0;entryX=0.5;entryY=0;entryDx=0;entryDy=0;" edge="1" parent="s6g-bE5c9c6niWiSLbd3-1" source="s6g-bE5c9c6niWiSLbd3-32" target="s6g-bE5c9c6niWiSLbd3-19">
          <mxGeometry width="50" height="50" relative="1" as="geometry">
            <mxPoint x="402" y="715" as="sourcePoint" />
            <mxPoint x="452" y="665" as="targetPoint" />
          </mxGeometry>
        </mxCell>
        <mxCell id="s6g-bE5c9c6niWiSLbd3-7" value="" style="endArrow=classic;html=1;rounded=0;exitX=0.5;exitY=1;exitDx=0;exitDy=0;entryX=0.5;entryY=0;entryDx=0;entryDy=0;" edge="1" parent="s6g-bE5c9c6niWiSLbd3-1" source="s6g-bE5c9c6niWiSLbd3-27" target="s6g-bE5c9c6niWiSLbd3-32">
          <mxGeometry width="50" height="50" relative="1" as="geometry">
            <mxPoint x="400" y="645" as="sourcePoint" />
            <mxPoint x="450" y="595" as="targetPoint" />
          </mxGeometry>
        </mxCell>
        <mxCell id="s6g-bE5c9c6niWiSLbd3-8" style="edgeStyle=orthogonalEdgeStyle;rounded=0;orthogonalLoop=1;jettySize=auto;html=1;exitX=0.5;exitY=1;exitDx=0;exitDy=0;entryX=0.5;entryY=0;entryDx=0;entryDy=0;" edge="1" parent="s6g-bE5c9c6niWiSLbd3-1" target="s6g-bE5c9c6niWiSLbd3-12">
          <mxGeometry relative="1" as="geometry">
            <mxPoint x="420" y="125" as="sourcePoint" />
          </mxGeometry>
        </mxCell>
        <mxCell id="s6g-bE5c9c6niWiSLbd3-9" value="" style="shape=ellipse;fillColor=#0065FF;strokeColor=none;html=1;sketch=0;" vertex="1" parent="s6g-bE5c9c6niWiSLbd3-1">
          <mxGeometry x="414.5" y="615" width="10" height="10" as="geometry" />
        </mxCell>
        <mxCell id="s6g-bE5c9c6niWiSLbd3-10" value="&lt;font style=&quot;font-size: 18px;&quot;&gt;All MicroTasks&lt;/font&gt;" style="rounded=0;whiteSpace=wrap;html=1;fillColor=#FB8C00;" vertex="1" parent="s6g-bE5c9c6niWiSLbd3-1">
          <mxGeometry x="294.25" y="908" width="250" height="40" as="geometry" />
        </mxCell>
        <mxCell id="s6g-bE5c9c6niWiSLbd3-11" style="edgeStyle=orthogonalEdgeStyle;rounded=0;orthogonalLoop=1;jettySize=auto;html=1;exitX=0.5;exitY=1;exitDx=0;exitDy=0;entryX=0.5;entryY=0;entryDx=0;entryDy=0;" edge="1" parent="s6g-bE5c9c6niWiSLbd3-1" source="s6g-bE5c9c6niWiSLbd3-12" target="s6g-bE5c9c6niWiSLbd3-13">
          <mxGeometry relative="1" as="geometry" />
        </mxCell>
        <mxCell id="s6g-bE5c9c6niWiSLbd3-12" value="&lt;font style=&quot;font-size: 18px;&quot;&gt;All MicroTasks&lt;/font&gt;" style="rounded=0;whiteSpace=wrap;html=1;fillColor=#FB8C00;" vertex="1" parent="s6g-bE5c9c6niWiSLbd3-1">
          <mxGeometry x="295.25" y="155" width="250" height="40" as="geometry" />
        </mxCell>
        <mxCell id="s6g-bE5c9c6niWiSLbd3-13" value="&lt;font style=&quot;font-size: 18px;&quot;&gt;Next Frame?&lt;/font&gt;" style="rhombus;whiteSpace=wrap;html=1;fillColor=#EEEEEE;" vertex="1" parent="s6g-bE5c9c6niWiSLbd3-1">
          <mxGeometry x="295.25" y="227" width="250" height="48" as="geometry" />
        </mxCell>
        <mxCell id="s6g-bE5c9c6niWiSLbd3-14" style="edgeStyle=orthogonalEdgeStyle;rounded=0;orthogonalLoop=1;jettySize=auto;html=1;exitX=0.5;exitY=1;exitDx=0;exitDy=0;entryX=0.5;entryY=0;entryDx=0;entryDy=0;" edge="1" parent="s6g-bE5c9c6niWiSLbd3-1" source="s6g-bE5c9c6niWiSLbd3-15" target="s6g-bE5c9c6niWiSLbd3-18">
          <mxGeometry relative="1" as="geometry" />
        </mxCell>
        <mxCell id="s6g-bE5c9c6niWiSLbd3-15" value="&lt;font style=&quot;font-size: 18px; color: rgb(255, 255, 255);&quot;&gt;All requestAnimationFrame()&lt;/font&gt;" style="rounded=0;whiteSpace=wrap;html=1;fillColor=#43A047;" vertex="1" parent="s6g-bE5c9c6niWiSLbd3-1">
          <mxGeometry x="295.5" y="310" width="250" height="38" as="geometry" />
        </mxCell>
        <mxCell id="s6g-bE5c9c6niWiSLbd3-16" value="" style="endArrow=classic;html=1;rounded=0;entryX=0.5;entryY=0;entryDx=0;entryDy=0;exitX=0.5;exitY=1;exitDx=0;exitDy=0;" edge="1" parent="s6g-bE5c9c6niWiSLbd3-1" source="s6g-bE5c9c6niWiSLbd3-13" target="s6g-bE5c9c6niWiSLbd3-15">
          <mxGeometry width="50" height="50" relative="1" as="geometry">
            <mxPoint x="495.75" y="280.77499999999986" as="sourcePoint" />
            <mxPoint x="365.25" y="391.55" as="targetPoint" />
            <Array as="points" />
          </mxGeometry>
        </mxCell>
        <mxCell id="s6g-bE5c9c6niWiSLbd3-17" value="&lt;font style=&quot;font-size: 18px;&quot;&gt;Yes&lt;/font&gt;" style="text;html=1;align=center;verticalAlign=middle;whiteSpace=wrap;rounded=0;" vertex="1" parent="s6g-bE5c9c6niWiSLbd3-1">
          <mxGeometry x="412.5" y="270.55" width="60" height="30" as="geometry" />
        </mxCell>
        <mxCell id="s6g-bE5c9c6niWiSLbd3-18" value="&lt;font style=&quot;font-size: 18px;&quot;&gt;All MicroTasks&lt;/font&gt;" style="rounded=0;whiteSpace=wrap;html=1;fillColor=#FB8C00;" vertex="1" parent="s6g-bE5c9c6niWiSLbd3-1">
          <mxGeometry x="295.5" y="375" width="250" height="40" as="geometry" />
        </mxCell>
        <mxCell id="s6g-bE5c9c6niWiSLbd3-19" value="&lt;font style=&quot;font-size: 18px;&quot;&gt;Free time?*&lt;/font&gt;" style="rhombus;whiteSpace=wrap;html=1;fillColor=#EEEEEE;" vertex="1" parent="s6g-bE5c9c6niWiSLbd3-1">
          <mxGeometry x="294.5" y="763" width="250" height="41.55" as="geometry" />
        </mxCell>
        <mxCell id="s6g-bE5c9c6niWiSLbd3-20" value="" style="edgeStyle=orthogonalEdgeStyle;rounded=0;orthogonalLoop=1;jettySize=auto;html=1;" edge="1" parent="s6g-bE5c9c6niWiSLbd3-1" source="s6g-bE5c9c6niWiSLbd3-21" target="s6g-bE5c9c6niWiSLbd3-10">
          <mxGeometry relative="1" as="geometry" />
        </mxCell>
        <mxCell id="s6g-bE5c9c6niWiSLbd3-21" value="&lt;font style=&quot;font-size: 18px; color: rgb(255, 255, 255);&quot;&gt;One requestIdleCallback()&lt;/font&gt;" style="rounded=0;whiteSpace=wrap;html=1;fillColor=#8E24AA;" vertex="1" parent="s6g-bE5c9c6niWiSLbd3-1">
          <mxGeometry x="294.5" y="833" width="250" height="40" as="geometry" />
        </mxCell>
        <mxCell id="s6g-bE5c9c6niWiSLbd3-22" style="edgeStyle=orthogonalEdgeStyle;rounded=0;orthogonalLoop=1;jettySize=auto;html=1;exitX=0.5;exitY=1;exitDx=0;exitDy=0;entryX=0.503;entryY=0.037;entryDx=0;entryDy=0;entryPerimeter=0;" edge="1" parent="s6g-bE5c9c6niWiSLbd3-1" source="s6g-bE5c9c6niWiSLbd3-23" target="s6g-bE5c9c6niWiSLbd3-27">
          <mxGeometry relative="1" as="geometry" />
        </mxCell>
        <mxCell id="s6g-bE5c9c6niWiSLbd3-23" value="&lt;font style=&quot;font-size: 18px; color: rgb(255, 255, 255);&quot;&gt;Render&lt;/font&gt;" style="rounded=1;whiteSpace=wrap;html=1;fillColor=#1565C0;strokeColor=#000000;shadow=1;glass=0;strokeWidth=6;" vertex="1" parent="s6g-bE5c9c6niWiSLbd3-1">
          <mxGeometry x="295.5" y="506.55" width="250" height="40" as="geometry" />
        </mxCell>
        <mxCell id="s6g-bE5c9c6niWiSLbd3-24" value="&lt;font style=&quot;font-size: 18px;&quot;&gt;No&lt;/font&gt;" style="text;html=1;align=center;verticalAlign=middle;whiteSpace=wrap;rounded=0;" vertex="1" parent="s6g-bE5c9c6niWiSLbd3-1">
          <mxGeometry x="530" y="227" width="60" height="30" as="geometry" />
        </mxCell>
        <mxCell id="s6g-bE5c9c6niWiSLbd3-25" value="" style="endArrow=classic;html=1;rounded=0;exitX=0.5;exitY=1;exitDx=0;exitDy=0;entryX=0.5;entryY=0;entryDx=0;entryDy=0;" edge="1" parent="s6g-bE5c9c6niWiSLbd3-1" source="s6g-bE5c9c6niWiSLbd3-19" target="s6g-bE5c9c6niWiSLbd3-21">
          <mxGeometry width="50" height="50" relative="1" as="geometry">
            <mxPoint x="475" y="893" as="sourcePoint" />
            <mxPoint x="525" y="843" as="targetPoint" />
          </mxGeometry>
        </mxCell>
        <mxCell id="s6g-bE5c9c6niWiSLbd3-26" value="&lt;font style=&quot;font-size: 18px;&quot;&gt;Yes&lt;/font&gt;" style="text;html=1;align=center;verticalAlign=middle;whiteSpace=wrap;rounded=0;" vertex="1" parent="s6g-bE5c9c6niWiSLbd3-1">
          <mxGeometry x="408" y="801" width="60" height="30" as="geometry" />
        </mxCell>
        <mxCell id="s6g-bE5c9c6niWiSLbd3-27" value="&lt;font style=&quot;font-size: 20px;&quot;&gt;All MicroTasks&lt;/font&gt;" style="rounded=0;whiteSpace=wrap;html=1;fillColor=#FB8C00;glass=0;gradientColor=none;" vertex="1" parent="s6g-bE5c9c6niWiSLbd3-1">
          <mxGeometry x="294.5" y="566.55" width="250" height="40" as="geometry" />
        </mxCell>
        <mxCell id="s6g-bE5c9c6niWiSLbd3-28" value="" style="endArrow=none;html=1;rounded=0;entryX=0.5;entryY=1;entryDx=0;entryDy=0;" edge="1" parent="s6g-bE5c9c6niWiSLbd3-1" source="s6g-bE5c9c6niWiSLbd3-30" target="s6g-bE5c9c6niWiSLbd3-10">
          <mxGeometry width="50" height="50" relative="1" as="geometry">
            <mxPoint x="419.5" y="733" as="sourcePoint" />
            <mxPoint x="475" y="793" as="targetPoint" />
            <Array as="points">
              <mxPoint x="264.5" y="733" />
              <mxPoint x="264.5" y="988" />
              <mxPoint x="419.5" y="988" />
            </Array>
          </mxGeometry>
        </mxCell>
        <mxCell id="s6g-bE5c9c6niWiSLbd3-29" value="" style="edgeStyle=orthogonalEdgeStyle;rounded=0;orthogonalLoop=1;jettySize=auto;html=1;endArrow=none;startFill=0;" edge="1" parent="s6g-bE5c9c6niWiSLbd3-1" source="s6g-bE5c9c6niWiSLbd3-30" target="s6g-bE5c9c6niWiSLbd3-32">
          <mxGeometry relative="1" as="geometry" />
        </mxCell>
        <mxCell id="s6g-bE5c9c6niWiSLbd3-30" value="" style="shape=ellipse;fillColor=#0065FF;strokeColor=none;html=1;sketch=0;" vertex="1" parent="s6g-bE5c9c6niWiSLbd3-1">
          <mxGeometry x="414.5" y="728" width="10" height="10" as="geometry" />
        </mxCell>
        <mxCell id="s6g-bE5c9c6niWiSLbd3-31" value="&lt;font style=&quot;font-size: 18px;&quot;&gt;No&lt;/font&gt;" style="text;html=1;align=center;verticalAlign=middle;whiteSpace=wrap;rounded=0;" vertex="1" parent="s6g-bE5c9c6niWiSLbd3-1">
          <mxGeometry x="533.25" y="755" width="60" height="30" as="geometry" />
        </mxCell>
        <mxCell id="s6g-bE5c9c6niWiSLbd3-32" value="&lt;font style=&quot;color: rgb(0, 0, 0);&quot;&gt;&lt;span style=&quot;font-size: 18px;&quot;&gt;&lt;font style=&quot;color: rgb(0, 0, 0);&quot;&gt;No Macrotasks?&lt;/font&gt;&lt;/span&gt;&lt;/font&gt;" style="rhombus;whiteSpace=wrap;html=1;fillColor=#EEEEEE;" vertex="1" parent="s6g-bE5c9c6niWiSLbd3-1">
          <mxGeometry x="294.5" y="645.5" width="250" height="60" as="geometry" />
        </mxCell>
        <mxCell id="s6g-bE5c9c6niWiSLbd3-33" value="&lt;font style=&quot;font-size: 18px;&quot;&gt;Yes&lt;/font&gt;" style="text;html=1;align=center;verticalAlign=middle;whiteSpace=wrap;rounded=0;" vertex="1" parent="s6g-bE5c9c6niWiSLbd3-1">
          <mxGeometry x="408" y="701.5" width="60" height="30" as="geometry" />
        </mxCell>
        <mxCell id="s6g-bE5c9c6niWiSLbd3-34" value="" style="endArrow=none;html=1;rounded=0;exitX=1;exitY=0.5;exitDx=0;exitDy=0;strokeWidth=5;" edge="1" parent="s6g-bE5c9c6niWiSLbd3-1">
          <mxGeometry width="50" height="50" relative="1" as="geometry">
            <mxPoint x="604.5" y="674.5" as="sourcePoint" />
            <mxPoint x="604.5" y="675" as="targetPoint" />
          </mxGeometry>
        </mxCell>
        <mxCell id="s6g-bE5c9c6niWiSLbd3-35" value="" style="endArrow=none;html=1;rounded=0;exitX=1;exitY=0.5;exitDx=0;exitDy=0;strokeWidth=5;" edge="1" parent="s6g-bE5c9c6niWiSLbd3-1" source="s6g-bE5c9c6niWiSLbd3-39">
          <mxGeometry width="50" height="50" relative="1" as="geometry">
            <mxPoint x="542.5" y="675" as="sourcePoint" />
            <mxPoint x="640" y="675" as="targetPoint" />
          </mxGeometry>
        </mxCell>
        <mxCell id="s6g-bE5c9c6niWiSLbd3-36" value="&lt;font style=&quot;font-size: 18px;&quot;&gt;No&lt;/font&gt;" style="text;html=1;align=center;verticalAlign=middle;whiteSpace=wrap;rounded=0;" vertex="1" parent="s6g-bE5c9c6niWiSLbd3-1">
          <mxGeometry x="534.5" y="648" width="57.5" height="27" as="geometry" />
        </mxCell>
        <mxCell id="s6g-bE5c9c6niWiSLbd3-37" value="&lt;font style=&quot;font-size: 18px;&quot;&gt;&lt;span style=&quot;&quot; data-src-align=&quot;14:1&quot; class=&quot;EzKURWReUAB5oZgtQNkl&quot;&gt;Render?&lt;/span&gt;&lt;/font&gt;" style="rhombus;whiteSpace=wrap;html=1;fillColor=#EEEEEE;" vertex="1" parent="s6g-bE5c9c6niWiSLbd3-1">
          <mxGeometry x="295.5" y="435" width="250" height="41.55" as="geometry" />
        </mxCell>
        <mxCell id="s6g-bE5c9c6niWiSLbd3-38" value="" style="endArrow=none;html=1;rounded=0;exitX=1;exitY=0.5;exitDx=0;exitDy=0;strokeWidth=5;" edge="1" parent="s6g-bE5c9c6niWiSLbd3-1" source="s6g-bE5c9c6niWiSLbd3-32" target="s6g-bE5c9c6niWiSLbd3-39">
          <mxGeometry width="50" height="50" relative="1" as="geometry">
            <mxPoint x="543" y="676" as="sourcePoint" />
            <mxPoint x="640" y="675" as="targetPoint" />
          </mxGeometry>
        </mxCell>
        <mxCell id="s6g-bE5c9c6niWiSLbd3-39" value="" style="shape=ellipse;fillColor=#0065FF;strokeColor=none;html=1;sketch=0;" vertex="1" parent="s6g-bE5c9c6niWiSLbd3-1">
          <mxGeometry x="630" y="670.5" width="10" height="10" as="geometry" />
        </mxCell>
        <mxCell id="s6g-bE5c9c6niWiSLbd3-40" value="&lt;font style=&quot;font-size: 18px;&quot;&gt;Yes&lt;/font&gt;" style="text;html=1;align=center;verticalAlign=middle;whiteSpace=wrap;rounded=0;" vertex="1" parent="s6g-bE5c9c6niWiSLbd3-1">
          <mxGeometry x="412.5" y="471" width="60" height="30" as="geometry" />
        </mxCell>
        <mxCell id="s6g-bE5c9c6niWiSLbd3-41" value="&lt;font style=&quot;font-size: 18px;&quot;&gt;No&lt;/font&gt;" style="text;html=1;align=center;verticalAlign=middle;whiteSpace=wrap;rounded=0;" vertex="1" parent="s6g-bE5c9c6niWiSLbd3-1">
          <mxGeometry x="533.75" y="430" width="57.5" height="27" as="geometry" />
        </mxCell>
        <mxCell id="s6g-bE5c9c6niWiSLbd3-42" value="" style="endArrow=none;html=1;rounded=0;entryX=1;entryY=0.5;entryDx=0;entryDy=0;exitX=1;exitY=0.5;exitDx=0;exitDy=0;" edge="1" parent="s6g-bE5c9c6niWiSLbd3-1" source="s6g-bE5c9c6niWiSLbd3-9" target="s6g-bE5c9c6niWiSLbd3-37">
          <mxGeometry width="50" height="50" relative="1" as="geometry">
            <mxPoint x="410" y="635" as="sourcePoint" />
            <mxPoint x="460" y="585" as="targetPoint" />
            <Array as="points">
              <mxPoint x="590" y="620" />
              <mxPoint x="590" y="455" />
            </Array>
          </mxGeometry>
        </mxCell>
        <mxCell id="s6g-bE5c9c6niWiSLbd3-43" value="" style="endArrow=none;html=1;rounded=0;exitX=1;exitY=0.5;exitDx=0;exitDy=0;" edge="1" parent="s6g-bE5c9c6niWiSLbd3-1" source="s6g-bE5c9c6niWiSLbd3-13">
          <mxGeometry width="50" height="50" relative="1" as="geometry">
            <mxPoint x="450" y="495" as="sourcePoint" />
            <mxPoint x="590" y="455" as="targetPoint" />
            <Array as="points">
              <mxPoint x="590" y="251" />
            </Array>
          </mxGeometry>
        </mxCell>
        <mxCell id="s6g-bE5c9c6niWiSLbd3-44" value="" style="shape=ellipse;fillColor=#0065FF;strokeColor=none;html=1;sketch=0;" vertex="1" parent="s6g-bE5c9c6niWiSLbd3-1">
          <mxGeometry x="584.25" y="449.78" width="10" height="10" as="geometry" />
        </mxCell>
        <mxCell id="s6g-bE5c9c6niWiSLbd3-45" value="" style="endArrow=classic;html=1;rounded=0;exitX=0.5;exitY=1;exitDx=0;exitDy=0;entryX=0.5;entryY=0;entryDx=0;entryDy=0;" edge="1" parent="s6g-bE5c9c6niWiSLbd3-1" source="s6g-bE5c9c6niWiSLbd3-18" target="s6g-bE5c9c6niWiSLbd3-37">
          <mxGeometry width="50" height="50" relative="1" as="geometry">
            <mxPoint x="360" y="505" as="sourcePoint" />
            <mxPoint x="410" y="455" as="targetPoint" />
          </mxGeometry>
        </mxCell>
        <mxCell id="s6g-bE5c9c6niWiSLbd3-46" value="" style="endArrow=classic;html=1;rounded=0;exitX=0.5;exitY=1;exitDx=0;exitDy=0;entryX=0.5;entryY=0;entryDx=0;entryDy=0;" edge="1" parent="s6g-bE5c9c6niWiSLbd3-1" source="s6g-bE5c9c6niWiSLbd3-37" target="s6g-bE5c9c6niWiSLbd3-23">
          <mxGeometry width="50" height="50" relative="1" as="geometry">
            <mxPoint x="360" y="505" as="sourcePoint" />
            <mxPoint x="410" y="455" as="targetPoint" />
          </mxGeometry>
        </mxCell>
        <mxCell id="s6g-bE5c9c6niWiSLbd3-47" value="" style="ellipse;shape=cloud;whiteSpace=wrap;html=1;fillColor=#464646;gradientColor=none;strokeColor=#666666;" vertex="1" parent="s6g-bE5c9c6niWiSLbd3-1">
          <mxGeometry x="239.25" y="353" width="360" height="80" as="geometry" />
        </mxCell>
        <mxCell id="s6g-bE5c9c6niWiSLbd3-48" value="" style="ellipse;shape=cloud;whiteSpace=wrap;html=1;fillColor=#464646;gradientColor=none;strokeColor=#666666;" vertex="1" parent="s6g-bE5c9c6niWiSLbd3-1">
          <mxGeometry x="239.25" y="546.55" width="360" height="80" as="geometry" />
        </mxCell>
        <mxCell id="s6g-bE5c9c6niWiSLbd3-49" value="" style="ellipse;shape=cloud;whiteSpace=wrap;html=1;fillColor=#464646;gradientColor=none;strokeColor=#666666;" vertex="1" parent="s6g-bE5c9c6niWiSLbd3-1">
          <mxGeometry x="234.25" y="885" width="360" height="80" as="geometry" />
        </mxCell>
        <mxCell id="s6g-bE5c9c6niWiSLbd3-50" value="" style="ellipse;shape=cloud;whiteSpace=wrap;html=1;fillColor=#464646;gradientColor=none;strokeColor=#666666;" vertex="1" parent="s6g-bE5c9c6niWiSLbd3-1">
          <mxGeometry x="140" y="535" width="547" height="578.45" as="geometry" />
        </mxCell>
        <mxCell id="s6g-bE5c9c6niWiSLbd3-51" value="" style="ellipse;shape=cloud;whiteSpace=wrap;html=1;fillColor=#464646;gradientColor=none;strokeColor=#666666;" vertex="1" parent="s6g-bE5c9c6niWiSLbd3-1">
          <mxGeometry x="220.5" y="173.1" width="419.5" height="276.68" as="geometry" />
        </mxCell>
        <mxCell id="s6g-bE5c9c6niWiSLbd3-52" value="" style="ellipse;shape=cloud;whiteSpace=wrap;html=1;fillColor=#464646;gradientColor=none;strokeColor=#666666;" vertex="1" parent="s6g-bE5c9c6niWiSLbd3-1">
          <mxGeometry x="155.62" y="267.55" width="515.75" height="470.45" as="geometry" />
        </mxCell>
        <mxCell id="s6g-bE5c9c6niWiSLbd3-53" value="" style="ellipse;shape=cloud;whiteSpace=wrap;html=1;fillColor=#464646;gradientColor=none;strokeColor=#666666;" vertex="1" parent="s6g-bE5c9c6niWiSLbd3-1">
          <mxGeometry x="237.25" y="132" width="360" height="80" as="geometry" />
        </mxCell>
        <mxCell id="s6g-bE5c9c6niWiSLbd3-54" value="&lt;font style=&quot;font-size: 18px;&quot;&gt;One MacroTask&lt;/font&gt;" style="rounded=0;whiteSpace=wrap;html=1;fillColor=#FBC02D;" vertex="1" parent="s6g-bE5c9c6niWiSLbd3-1">
          <mxGeometry x="295.5" y="86" width="250" height="40" as="geometry" />
        </mxCell>
      </root>
    </mxGraphModel>
  </diagram>
  <diagram name="4" id="Pl0QMmMSR7EU5mw_xZet">
    <mxGraphModel dx="840" dy="574" grid="1" gridSize="10" guides="1" tooltips="1" connect="1" arrows="1" fold="1" page="1" pageScale="1" pageWidth="827" pageHeight="1169" math="0" shadow="0">
      <root>
        <mxCell id="dJg8MHx6eP1G7Y0fPKZ6-0" />
        <mxCell id="dJg8MHx6eP1G7Y0fPKZ6-1" parent="dJg8MHx6eP1G7Y0fPKZ6-0" />
        <mxCell id="5-6mawAKfcdlvTALdcQt-0" value="&lt;font style=&quot;font-size: 18px;&quot;&gt;One MacroTask&lt;/font&gt;" style="rounded=0;whiteSpace=wrap;html=1;fillColor=#FBC02D;" vertex="1" parent="dJg8MHx6eP1G7Y0fPKZ6-1">
          <mxGeometry x="313.5" y="70" width="250" height="40" as="geometry" />
        </mxCell>
        <mxCell id="5-6mawAKfcdlvTALdcQt-1" value="&lt;font style=&quot;font-size: 18px;&quot;&gt;One MacroTask&lt;/font&gt;" style="rounded=0;whiteSpace=wrap;html=1;fillColor=#FBC02D;" vertex="1" parent="dJg8MHx6eP1G7Y0fPKZ6-1">
          <mxGeometry x="305.5" y="78" width="250" height="40" as="geometry" />
        </mxCell>
        <mxCell id="5-6mawAKfcdlvTALdcQt-3" value="" style="endArrow=classic;html=1;rounded=0;exitX=1.016;exitY=0.495;exitDx=0;exitDy=0;entryX=0.5;entryY=0;entryDx=0;entryDy=0;strokeWidth=5;exitPerimeter=0;" edge="1" parent="dJg8MHx6eP1G7Y0fPKZ6-1" target="5-6mawAKfcdlvTALdcQt-2">
          <mxGeometry width="50" height="50" relative="1" as="geometry">
            <mxPoint x="549" y="785" as="sourcePoint" />
            <mxPoint x="450.5" y="86" as="targetPoint" />
            <Array as="points">
              <mxPoint x="635.5" y="785" />
              <mxPoint x="635.5" y="692" />
              <mxPoint x="636" y="38" />
              <mxPoint x="421" y="38" />
            </Array>
          </mxGeometry>
        </mxCell>
        <mxCell id="dJg8MHx6eP1G7Y0fPKZ6-2" value="" style="endArrow=classic;html=1;rounded=0;exitX=0.5;exitY=1;exitDx=0;exitDy=0;entryX=0.5;entryY=0;entryDx=0;entryDy=0;" parent="dJg8MHx6eP1G7Y0fPKZ6-1" source="dJg8MHx6eP1G7Y0fPKZ6-30" target="dJg8MHx6eP1G7Y0fPKZ6-16" edge="1">
          <mxGeometry width="50" height="50" relative="1" as="geometry">
            <mxPoint x="402" y="715" as="sourcePoint" />
            <mxPoint x="452" y="665" as="targetPoint" />
          </mxGeometry>
        </mxCell>
        <mxCell id="dJg8MHx6eP1G7Y0fPKZ6-3" value="" style="endArrow=classic;html=1;rounded=0;exitX=0.5;exitY=1;exitDx=0;exitDy=0;entryX=0.5;entryY=0;entryDx=0;entryDy=0;" parent="dJg8MHx6eP1G7Y0fPKZ6-1" source="dJg8MHx6eP1G7Y0fPKZ6-25" target="dJg8MHx6eP1G7Y0fPKZ6-30" edge="1">
          <mxGeometry width="50" height="50" relative="1" as="geometry">
            <mxPoint x="400" y="645" as="sourcePoint" />
            <mxPoint x="450" y="595" as="targetPoint" />
          </mxGeometry>
        </mxCell>
        <mxCell id="dJg8MHx6eP1G7Y0fPKZ6-4" style="edgeStyle=orthogonalEdgeStyle;rounded=0;orthogonalLoop=1;jettySize=auto;html=1;exitX=0.5;exitY=1;exitDx=0;exitDy=0;entryX=0.5;entryY=0;entryDx=0;entryDy=0;" parent="dJg8MHx6eP1G7Y0fPKZ6-1" target="dJg8MHx6eP1G7Y0fPKZ6-9" edge="1">
          <mxGeometry relative="1" as="geometry">
            <mxPoint x="420" y="125" as="sourcePoint" />
          </mxGeometry>
        </mxCell>
        <mxCell id="dJg8MHx6eP1G7Y0fPKZ6-5" value="" style="shape=ellipse;fillColor=#0065FF;strokeColor=none;html=1;sketch=0;" parent="dJg8MHx6eP1G7Y0fPKZ6-1" vertex="1">
          <mxGeometry x="414.5" y="615" width="10" height="10" as="geometry" />
        </mxCell>
        <mxCell id="dJg8MHx6eP1G7Y0fPKZ6-7" value="&lt;font style=&quot;font-size: 18px;&quot;&gt;All MicroTasks&lt;/font&gt;" style="rounded=0;whiteSpace=wrap;html=1;fillColor=#FB8C00;" parent="dJg8MHx6eP1G7Y0fPKZ6-1" vertex="1">
          <mxGeometry x="294.25" y="908" width="250" height="40" as="geometry" />
        </mxCell>
        <mxCell id="dJg8MHx6eP1G7Y0fPKZ6-8" style="edgeStyle=orthogonalEdgeStyle;rounded=0;orthogonalLoop=1;jettySize=auto;html=1;exitX=0.5;exitY=1;exitDx=0;exitDy=0;entryX=0.5;entryY=0;entryDx=0;entryDy=0;" parent="dJg8MHx6eP1G7Y0fPKZ6-1" source="dJg8MHx6eP1G7Y0fPKZ6-9" target="dJg8MHx6eP1G7Y0fPKZ6-10" edge="1">
          <mxGeometry relative="1" as="geometry" />
        </mxCell>
        <mxCell id="dJg8MHx6eP1G7Y0fPKZ6-9" value="&lt;font style=&quot;font-size: 18px;&quot;&gt;All MicroTasks&lt;/font&gt;" style="rounded=0;whiteSpace=wrap;html=1;fillColor=#FB8C00;" parent="dJg8MHx6eP1G7Y0fPKZ6-1" vertex="1">
          <mxGeometry x="295.25" y="155" width="250" height="40" as="geometry" />
        </mxCell>
        <mxCell id="dJg8MHx6eP1G7Y0fPKZ6-10" value="&lt;font style=&quot;font-size: 18px;&quot;&gt;Next Frame?&lt;/font&gt;" style="rhombus;whiteSpace=wrap;html=1;fillColor=#EEEEEE;" parent="dJg8MHx6eP1G7Y0fPKZ6-1" vertex="1">
          <mxGeometry x="295.25" y="227" width="250" height="48" as="geometry" />
        </mxCell>
        <mxCell id="dJg8MHx6eP1G7Y0fPKZ6-11" style="edgeStyle=orthogonalEdgeStyle;rounded=0;orthogonalLoop=1;jettySize=auto;html=1;exitX=0.5;exitY=1;exitDx=0;exitDy=0;entryX=0.5;entryY=0;entryDx=0;entryDy=0;" parent="dJg8MHx6eP1G7Y0fPKZ6-1" source="dJg8MHx6eP1G7Y0fPKZ6-12" target="dJg8MHx6eP1G7Y0fPKZ6-15" edge="1">
          <mxGeometry relative="1" as="geometry" />
        </mxCell>
        <mxCell id="dJg8MHx6eP1G7Y0fPKZ6-12" value="&lt;font style=&quot;font-size: 18px; color: rgb(255, 255, 255);&quot;&gt;All requestAnimationFrame()&lt;/font&gt;" style="rounded=0;whiteSpace=wrap;html=1;fillColor=#43A047;" parent="dJg8MHx6eP1G7Y0fPKZ6-1" vertex="1">
          <mxGeometry x="295.5" y="310" width="250" height="38" as="geometry" />
        </mxCell>
        <mxCell id="dJg8MHx6eP1G7Y0fPKZ6-13" value="" style="endArrow=classic;html=1;rounded=0;entryX=0.5;entryY=0;entryDx=0;entryDy=0;exitX=0.5;exitY=1;exitDx=0;exitDy=0;" parent="dJg8MHx6eP1G7Y0fPKZ6-1" source="dJg8MHx6eP1G7Y0fPKZ6-10" target="dJg8MHx6eP1G7Y0fPKZ6-12" edge="1">
          <mxGeometry width="50" height="50" relative="1" as="geometry">
            <mxPoint x="495.75" y="280.77499999999986" as="sourcePoint" />
            <mxPoint x="365.25" y="391.55" as="targetPoint" />
            <Array as="points" />
          </mxGeometry>
        </mxCell>
        <mxCell id="dJg8MHx6eP1G7Y0fPKZ6-14" value="&lt;font style=&quot;font-size: 18px;&quot;&gt;Yes&lt;/font&gt;" style="text;html=1;align=center;verticalAlign=middle;whiteSpace=wrap;rounded=0;" parent="dJg8MHx6eP1G7Y0fPKZ6-1" vertex="1">
          <mxGeometry x="412.5" y="270.55" width="60" height="30" as="geometry" />
        </mxCell>
        <mxCell id="dJg8MHx6eP1G7Y0fPKZ6-15" value="&lt;font style=&quot;font-size: 18px;&quot;&gt;All MicroTasks&lt;/font&gt;" style="rounded=0;whiteSpace=wrap;html=1;fillColor=#FB8C00;" parent="dJg8MHx6eP1G7Y0fPKZ6-1" vertex="1">
          <mxGeometry x="295.5" y="375" width="250" height="40" as="geometry" />
        </mxCell>
        <mxCell id="dJg8MHx6eP1G7Y0fPKZ6-16" value="&lt;font style=&quot;font-size: 18px;&quot;&gt;Free time?*&lt;/font&gt;" style="rhombus;whiteSpace=wrap;html=1;fillColor=#EEEEEE;" parent="dJg8MHx6eP1G7Y0fPKZ6-1" vertex="1">
          <mxGeometry x="294.5" y="763" width="250" height="41.55" as="geometry" />
        </mxCell>
        <mxCell id="dJg8MHx6eP1G7Y0fPKZ6-17" value="" style="edgeStyle=orthogonalEdgeStyle;rounded=0;orthogonalLoop=1;jettySize=auto;html=1;" parent="dJg8MHx6eP1G7Y0fPKZ6-1" source="dJg8MHx6eP1G7Y0fPKZ6-18" target="dJg8MHx6eP1G7Y0fPKZ6-7" edge="1">
          <mxGeometry relative="1" as="geometry" />
        </mxCell>
        <mxCell id="dJg8MHx6eP1G7Y0fPKZ6-18" value="&lt;font style=&quot;font-size: 18px; color: rgb(255, 255, 255);&quot;&gt;One requestIdleCallback()&lt;/font&gt;" style="rounded=0;whiteSpace=wrap;html=1;fillColor=#8E24AA;" parent="dJg8MHx6eP1G7Y0fPKZ6-1" vertex="1">
          <mxGeometry x="294.5" y="833" width="250" height="40" as="geometry" />
        </mxCell>
        <mxCell id="dJg8MHx6eP1G7Y0fPKZ6-19" style="edgeStyle=orthogonalEdgeStyle;rounded=0;orthogonalLoop=1;jettySize=auto;html=1;exitX=0.5;exitY=1;exitDx=0;exitDy=0;entryX=0.503;entryY=0.037;entryDx=0;entryDy=0;entryPerimeter=0;" parent="dJg8MHx6eP1G7Y0fPKZ6-1" source="dJg8MHx6eP1G7Y0fPKZ6-20" target="dJg8MHx6eP1G7Y0fPKZ6-25" edge="1">
          <mxGeometry relative="1" as="geometry" />
        </mxCell>
        <mxCell id="dJg8MHx6eP1G7Y0fPKZ6-20" value="&lt;font style=&quot;font-size: 18px; color: rgb(255, 255, 255);&quot;&gt;Render&lt;/font&gt;" style="rounded=1;whiteSpace=wrap;html=1;fillColor=#1565C0;strokeColor=#000000;shadow=1;glass=0;strokeWidth=6;" parent="dJg8MHx6eP1G7Y0fPKZ6-1" vertex="1">
          <mxGeometry x="295.5" y="506.55" width="250" height="40" as="geometry" />
        </mxCell>
        <mxCell id="dJg8MHx6eP1G7Y0fPKZ6-21" value="&lt;font style=&quot;font-size: 18px;&quot;&gt;No&lt;/font&gt;" style="text;html=1;align=center;verticalAlign=middle;whiteSpace=wrap;rounded=0;" parent="dJg8MHx6eP1G7Y0fPKZ6-1" vertex="1">
          <mxGeometry x="530" y="227" width="60" height="30" as="geometry" />
        </mxCell>
        <mxCell id="dJg8MHx6eP1G7Y0fPKZ6-22" value="" style="endArrow=classic;html=1;rounded=0;exitX=0.5;exitY=1;exitDx=0;exitDy=0;entryX=0.5;entryY=0;entryDx=0;entryDy=0;" parent="dJg8MHx6eP1G7Y0fPKZ6-1" source="dJg8MHx6eP1G7Y0fPKZ6-16" target="dJg8MHx6eP1G7Y0fPKZ6-18" edge="1">
          <mxGeometry width="50" height="50" relative="1" as="geometry">
            <mxPoint x="475" y="893" as="sourcePoint" />
            <mxPoint x="525" y="843" as="targetPoint" />
          </mxGeometry>
        </mxCell>
        <mxCell id="dJg8MHx6eP1G7Y0fPKZ6-24" value="&lt;font style=&quot;font-size: 18px;&quot;&gt;Yes&lt;/font&gt;" style="text;html=1;align=center;verticalAlign=middle;whiteSpace=wrap;rounded=0;" parent="dJg8MHx6eP1G7Y0fPKZ6-1" vertex="1">
          <mxGeometry x="408" y="801" width="60" height="30" as="geometry" />
        </mxCell>
        <mxCell id="dJg8MHx6eP1G7Y0fPKZ6-25" value="&lt;font style=&quot;font-size: 20px;&quot;&gt;All MicroTasks&lt;/font&gt;" style="rounded=0;whiteSpace=wrap;html=1;fillColor=#FB8C00;glass=0;gradientColor=none;" parent="dJg8MHx6eP1G7Y0fPKZ6-1" vertex="1">
          <mxGeometry x="294.5" y="566.55" width="250" height="40" as="geometry" />
        </mxCell>
        <mxCell id="dJg8MHx6eP1G7Y0fPKZ6-26" value="" style="endArrow=none;html=1;rounded=0;entryX=0.5;entryY=1;entryDx=0;entryDy=0;" parent="dJg8MHx6eP1G7Y0fPKZ6-1" source="dJg8MHx6eP1G7Y0fPKZ6-28" target="dJg8MHx6eP1G7Y0fPKZ6-7" edge="1">
          <mxGeometry width="50" height="50" relative="1" as="geometry">
            <mxPoint x="419.5" y="733" as="sourcePoint" />
            <mxPoint x="475" y="793" as="targetPoint" />
            <Array as="points">
              <mxPoint x="264.5" y="733" />
              <mxPoint x="264.5" y="988" />
              <mxPoint x="419.5" y="988" />
            </Array>
          </mxGeometry>
        </mxCell>
        <mxCell id="dJg8MHx6eP1G7Y0fPKZ6-27" value="" style="edgeStyle=orthogonalEdgeStyle;rounded=0;orthogonalLoop=1;jettySize=auto;html=1;endArrow=none;startFill=0;" parent="dJg8MHx6eP1G7Y0fPKZ6-1" source="dJg8MHx6eP1G7Y0fPKZ6-28" target="dJg8MHx6eP1G7Y0fPKZ6-30" edge="1">
          <mxGeometry relative="1" as="geometry" />
        </mxCell>
        <mxCell id="dJg8MHx6eP1G7Y0fPKZ6-28" value="" style="shape=ellipse;fillColor=#0065FF;strokeColor=none;html=1;sketch=0;" parent="dJg8MHx6eP1G7Y0fPKZ6-1" vertex="1">
          <mxGeometry x="414.5" y="728" width="10" height="10" as="geometry" />
        </mxCell>
        <mxCell id="dJg8MHx6eP1G7Y0fPKZ6-29" value="&lt;font style=&quot;font-size: 18px;&quot;&gt;No&lt;/font&gt;" style="text;html=1;align=center;verticalAlign=middle;whiteSpace=wrap;rounded=0;" parent="dJg8MHx6eP1G7Y0fPKZ6-1" vertex="1">
          <mxGeometry x="533.25" y="755" width="60" height="30" as="geometry" />
        </mxCell>
        <mxCell id="dJg8MHx6eP1G7Y0fPKZ6-30" value="&lt;font style=&quot;color: rgb(0, 0, 0);&quot;&gt;&lt;span style=&quot;font-size: 18px;&quot;&gt;&lt;font style=&quot;color: rgb(0, 0, 0);&quot;&gt;No Macrotasks?&lt;/font&gt;&lt;/span&gt;&lt;/font&gt;" style="rhombus;whiteSpace=wrap;html=1;fillColor=#EEEEEE;" parent="dJg8MHx6eP1G7Y0fPKZ6-1" vertex="1">
          <mxGeometry x="294.5" y="645.5" width="250" height="60" as="geometry" />
        </mxCell>
        <mxCell id="dJg8MHx6eP1G7Y0fPKZ6-31" value="&lt;font style=&quot;font-size: 18px;&quot;&gt;Yes&lt;/font&gt;" style="text;html=1;align=center;verticalAlign=middle;whiteSpace=wrap;rounded=0;" parent="dJg8MHx6eP1G7Y0fPKZ6-1" vertex="1">
          <mxGeometry x="408" y="701.5" width="60" height="30" as="geometry" />
        </mxCell>
        <mxCell id="dJg8MHx6eP1G7Y0fPKZ6-32" value="" style="endArrow=none;html=1;rounded=0;exitX=1;exitY=0.5;exitDx=0;exitDy=0;strokeWidth=5;" parent="dJg8MHx6eP1G7Y0fPKZ6-1" edge="1">
          <mxGeometry width="50" height="50" relative="1" as="geometry">
            <mxPoint x="604.5" y="674.5" as="sourcePoint" />
            <mxPoint x="604.5" y="675" as="targetPoint" />
          </mxGeometry>
        </mxCell>
        <mxCell id="dJg8MHx6eP1G7Y0fPKZ6-33" value="" style="endArrow=none;html=1;rounded=0;exitX=1;exitY=0.5;exitDx=0;exitDy=0;strokeWidth=5;" parent="dJg8MHx6eP1G7Y0fPKZ6-1" source="dJg8MHx6eP1G7Y0fPKZ6-37" edge="1">
          <mxGeometry width="50" height="50" relative="1" as="geometry">
            <mxPoint x="542.5" y="675" as="sourcePoint" />
            <mxPoint x="640" y="675" as="targetPoint" />
          </mxGeometry>
        </mxCell>
        <mxCell id="dJg8MHx6eP1G7Y0fPKZ6-34" value="&lt;font style=&quot;font-size: 18px;&quot;&gt;No&lt;/font&gt;" style="text;html=1;align=center;verticalAlign=middle;whiteSpace=wrap;rounded=0;" parent="dJg8MHx6eP1G7Y0fPKZ6-1" vertex="1">
          <mxGeometry x="534.5" y="648" width="57.5" height="27" as="geometry" />
        </mxCell>
        <mxCell id="dJg8MHx6eP1G7Y0fPKZ6-35" value="&lt;font style=&quot;font-size: 18px;&quot;&gt;&lt;span style=&quot;&quot; data-src-align=&quot;14:1&quot; class=&quot;EzKURWReUAB5oZgtQNkl&quot;&gt;Render?&lt;/span&gt;&lt;/font&gt;" style="rhombus;whiteSpace=wrap;html=1;fillColor=#EEEEEE;" parent="dJg8MHx6eP1G7Y0fPKZ6-1" vertex="1">
          <mxGeometry x="295.5" y="435" width="250" height="41.55" as="geometry" />
        </mxCell>
        <mxCell id="dJg8MHx6eP1G7Y0fPKZ6-36" value="" style="endArrow=none;html=1;rounded=0;exitX=1;exitY=0.5;exitDx=0;exitDy=0;strokeWidth=5;" parent="dJg8MHx6eP1G7Y0fPKZ6-1" source="dJg8MHx6eP1G7Y0fPKZ6-30" target="dJg8MHx6eP1G7Y0fPKZ6-37" edge="1">
          <mxGeometry width="50" height="50" relative="1" as="geometry">
            <mxPoint x="543" y="676" as="sourcePoint" />
            <mxPoint x="640" y="675" as="targetPoint" />
          </mxGeometry>
        </mxCell>
        <mxCell id="dJg8MHx6eP1G7Y0fPKZ6-37" value="" style="shape=ellipse;fillColor=#0065FF;strokeColor=none;html=1;sketch=0;" parent="dJg8MHx6eP1G7Y0fPKZ6-1" vertex="1">
          <mxGeometry x="630" y="670.5" width="10" height="10" as="geometry" />
        </mxCell>
        <mxCell id="dJg8MHx6eP1G7Y0fPKZ6-38" value="&lt;font style=&quot;font-size: 18px;&quot;&gt;Yes&lt;/font&gt;" style="text;html=1;align=center;verticalAlign=middle;whiteSpace=wrap;rounded=0;" parent="dJg8MHx6eP1G7Y0fPKZ6-1" vertex="1">
          <mxGeometry x="412.5" y="471" width="60" height="30" as="geometry" />
        </mxCell>
        <mxCell id="dJg8MHx6eP1G7Y0fPKZ6-39" value="&lt;font style=&quot;font-size: 18px;&quot;&gt;No&lt;/font&gt;" style="text;html=1;align=center;verticalAlign=middle;whiteSpace=wrap;rounded=0;" parent="dJg8MHx6eP1G7Y0fPKZ6-1" vertex="1">
          <mxGeometry x="533.75" y="430" width="57.5" height="27" as="geometry" />
        </mxCell>
        <mxCell id="dJg8MHx6eP1G7Y0fPKZ6-40" value="" style="endArrow=none;html=1;rounded=0;entryX=1;entryY=0.5;entryDx=0;entryDy=0;exitX=1;exitY=0.5;exitDx=0;exitDy=0;" parent="dJg8MHx6eP1G7Y0fPKZ6-1" source="dJg8MHx6eP1G7Y0fPKZ6-5" target="dJg8MHx6eP1G7Y0fPKZ6-35" edge="1">
          <mxGeometry width="50" height="50" relative="1" as="geometry">
            <mxPoint x="410" y="635" as="sourcePoint" />
            <mxPoint x="460" y="585" as="targetPoint" />
            <Array as="points">
              <mxPoint x="590" y="620" />
              <mxPoint x="590" y="455" />
            </Array>
          </mxGeometry>
        </mxCell>
        <mxCell id="dJg8MHx6eP1G7Y0fPKZ6-41" value="" style="endArrow=none;html=1;rounded=0;exitX=1;exitY=0.5;exitDx=0;exitDy=0;" parent="dJg8MHx6eP1G7Y0fPKZ6-1" source="dJg8MHx6eP1G7Y0fPKZ6-10" edge="1">
          <mxGeometry width="50" height="50" relative="1" as="geometry">
            <mxPoint x="450" y="495" as="sourcePoint" />
            <mxPoint x="590" y="455" as="targetPoint" />
            <Array as="points">
              <mxPoint x="590" y="251" />
            </Array>
          </mxGeometry>
        </mxCell>
        <mxCell id="dJg8MHx6eP1G7Y0fPKZ6-42" value="" style="shape=ellipse;fillColor=#0065FF;strokeColor=none;html=1;sketch=0;" parent="dJg8MHx6eP1G7Y0fPKZ6-1" vertex="1">
          <mxGeometry x="584.25" y="449.78" width="10" height="10" as="geometry" />
        </mxCell>
        <mxCell id="dJg8MHx6eP1G7Y0fPKZ6-43" value="" style="endArrow=classic;html=1;rounded=0;exitX=0.5;exitY=1;exitDx=0;exitDy=0;entryX=0.5;entryY=0;entryDx=0;entryDy=0;" parent="dJg8MHx6eP1G7Y0fPKZ6-1" source="dJg8MHx6eP1G7Y0fPKZ6-15" target="dJg8MHx6eP1G7Y0fPKZ6-35" edge="1">
          <mxGeometry width="50" height="50" relative="1" as="geometry">
            <mxPoint x="360" y="505" as="sourcePoint" />
            <mxPoint x="410" y="455" as="targetPoint" />
          </mxGeometry>
        </mxCell>
        <mxCell id="dJg8MHx6eP1G7Y0fPKZ6-44" value="" style="endArrow=classic;html=1;rounded=0;exitX=0.5;exitY=1;exitDx=0;exitDy=0;entryX=0.5;entryY=0;entryDx=0;entryDy=0;" parent="dJg8MHx6eP1G7Y0fPKZ6-1" source="dJg8MHx6eP1G7Y0fPKZ6-35" target="dJg8MHx6eP1G7Y0fPKZ6-20" edge="1">
          <mxGeometry width="50" height="50" relative="1" as="geometry">
            <mxPoint x="360" y="505" as="sourcePoint" />
            <mxPoint x="410" y="455" as="targetPoint" />
          </mxGeometry>
        </mxCell>
        <mxCell id="dJg8MHx6eP1G7Y0fPKZ6-45" value="" style="ellipse;shape=cloud;whiteSpace=wrap;html=1;fillColor=#464646;gradientColor=none;strokeColor=#666666;" parent="dJg8MHx6eP1G7Y0fPKZ6-1" vertex="1">
          <mxGeometry x="239.25" y="353" width="360" height="80" as="geometry" />
        </mxCell>
        <mxCell id="dJg8MHx6eP1G7Y0fPKZ6-46" value="" style="ellipse;shape=cloud;whiteSpace=wrap;html=1;fillColor=#464646;gradientColor=none;strokeColor=#666666;" parent="dJg8MHx6eP1G7Y0fPKZ6-1" vertex="1">
          <mxGeometry x="239.25" y="546.55" width="360" height="80" as="geometry" />
        </mxCell>
        <mxCell id="dJg8MHx6eP1G7Y0fPKZ6-47" value="" style="ellipse;shape=cloud;whiteSpace=wrap;html=1;fillColor=#464646;gradientColor=none;strokeColor=#666666;" parent="dJg8MHx6eP1G7Y0fPKZ6-1" vertex="1">
          <mxGeometry x="234.25" y="885" width="360" height="80" as="geometry" />
        </mxCell>
        <mxCell id="dJg8MHx6eP1G7Y0fPKZ6-48" value="" style="ellipse;shape=cloud;whiteSpace=wrap;html=1;fillColor=#464646;gradientColor=none;strokeColor=#666666;" parent="dJg8MHx6eP1G7Y0fPKZ6-1" vertex="1">
          <mxGeometry x="140" y="535" width="547" height="578.45" as="geometry" />
        </mxCell>
        <mxCell id="dJg8MHx6eP1G7Y0fPKZ6-49" value="" style="ellipse;shape=cloud;whiteSpace=wrap;html=1;fillColor=#464646;gradientColor=none;strokeColor=#666666;" parent="dJg8MHx6eP1G7Y0fPKZ6-1" vertex="1">
          <mxGeometry x="220.5" y="173.1" width="419.5" height="276.68" as="geometry" />
        </mxCell>
        <mxCell id="dJg8MHx6eP1G7Y0fPKZ6-50" value="" style="ellipse;shape=cloud;whiteSpace=wrap;html=1;fillColor=#464646;gradientColor=none;strokeColor=#666666;" parent="dJg8MHx6eP1G7Y0fPKZ6-1" vertex="1">
          <mxGeometry x="155.62" y="267.55" width="515.75" height="470.45" as="geometry" />
        </mxCell>
        <mxCell id="5-6mawAKfcdlvTALdcQt-2" value="&lt;font style=&quot;font-size: 18px;&quot;&gt;One MacroTask&lt;/font&gt;" style="rounded=0;whiteSpace=wrap;html=1;fillColor=#FBC02D;" vertex="1" parent="dJg8MHx6eP1G7Y0fPKZ6-1">
          <mxGeometry x="295.5" y="86" width="250" height="40" as="geometry" />
        </mxCell>
      </root>
    </mxGraphModel>
  </diagram>
  <diagram name="5" id="tPQDAk_VCud2aSGYIDPP">
    <mxGraphModel dx="500" dy="341" grid="1" gridSize="10" guides="1" tooltips="1" connect="1" arrows="1" fold="1" page="1" pageScale="1" pageWidth="827" pageHeight="1169" math="0" shadow="0">
      <root>
        <mxCell id="WxhlXX87YYjwKxR48YQW-0" />
        <mxCell id="WxhlXX87YYjwKxR48YQW-1" parent="WxhlXX87YYjwKxR48YQW-0" />
        <mxCell id="Awg3OYmWxlwkJrKREBUI-0" value="&lt;font style=&quot;font-size: 18px;&quot;&gt;One MacroTask&lt;/font&gt;" style="rounded=0;whiteSpace=wrap;html=1;fillColor=#FBC02D;" vertex="1" parent="WxhlXX87YYjwKxR48YQW-1">
          <mxGeometry x="312.25" y="70" width="250" height="40" as="geometry" />
        </mxCell>
        <mxCell id="Awg3OYmWxlwkJrKREBUI-1" value="&lt;font style=&quot;font-size: 18px;&quot;&gt;One MacroTask&lt;/font&gt;" style="rounded=0;whiteSpace=wrap;html=1;fillColor=#FBC02D;" vertex="1" parent="WxhlXX87YYjwKxR48YQW-1">
          <mxGeometry x="304.25" y="78" width="250" height="40" as="geometry" />
        </mxCell>
        <mxCell id="Awg3OYmWxlwkJrKREBUI-3" value="" style="endArrow=classic;html=1;rounded=0;exitX=1.016;exitY=0.495;exitDx=0;exitDy=0;entryX=0.5;entryY=0;entryDx=0;entryDy=0;strokeWidth=5;exitPerimeter=0;" edge="1" parent="WxhlXX87YYjwKxR48YQW-1" target="Awg3OYmWxlwkJrKREBUI-2">
          <mxGeometry width="50" height="50" relative="1" as="geometry">
            <mxPoint x="547.75" y="785" as="sourcePoint" />
            <mxPoint x="449.25" y="86" as="targetPoint" />
            <Array as="points">
              <mxPoint x="634.25" y="785" />
              <mxPoint x="634.25" y="692" />
              <mxPoint x="634.75" y="38" />
              <mxPoint x="419.75" y="38" />
            </Array>
          </mxGeometry>
        </mxCell>
        <mxCell id="WxhlXX87YYjwKxR48YQW-2" value="" style="endArrow=classic;html=1;rounded=0;exitX=0.5;exitY=1;exitDx=0;exitDy=0;entryX=0.5;entryY=0;entryDx=0;entryDy=0;" parent="WxhlXX87YYjwKxR48YQW-1" source="WxhlXX87YYjwKxR48YQW-30" target="WxhlXX87YYjwKxR48YQW-16" edge="1">
          <mxGeometry width="50" height="50" relative="1" as="geometry">
            <mxPoint x="402" y="715" as="sourcePoint" />
            <mxPoint x="452" y="665" as="targetPoint" />
          </mxGeometry>
        </mxCell>
        <mxCell id="WxhlXX87YYjwKxR48YQW-3" value="" style="endArrow=classic;html=1;rounded=0;exitX=0.5;exitY=1;exitDx=0;exitDy=0;entryX=0.5;entryY=0;entryDx=0;entryDy=0;" parent="WxhlXX87YYjwKxR48YQW-1" source="WxhlXX87YYjwKxR48YQW-25" target="WxhlXX87YYjwKxR48YQW-30" edge="1">
          <mxGeometry width="50" height="50" relative="1" as="geometry">
            <mxPoint x="400" y="645" as="sourcePoint" />
            <mxPoint x="450" y="595" as="targetPoint" />
          </mxGeometry>
        </mxCell>
        <mxCell id="WxhlXX87YYjwKxR48YQW-4" style="edgeStyle=orthogonalEdgeStyle;rounded=0;orthogonalLoop=1;jettySize=auto;html=1;exitX=0.5;exitY=1;exitDx=0;exitDy=0;entryX=0.5;entryY=0;entryDx=0;entryDy=0;" parent="WxhlXX87YYjwKxR48YQW-1" target="WxhlXX87YYjwKxR48YQW-9" edge="1">
          <mxGeometry relative="1" as="geometry">
            <mxPoint x="420" y="125" as="sourcePoint" />
          </mxGeometry>
        </mxCell>
        <mxCell id="WxhlXX87YYjwKxR48YQW-5" value="" style="shape=ellipse;fillColor=#0065FF;strokeColor=none;html=1;sketch=0;" parent="WxhlXX87YYjwKxR48YQW-1" vertex="1">
          <mxGeometry x="414.5" y="615" width="10" height="10" as="geometry" />
        </mxCell>
        <mxCell id="WxhlXX87YYjwKxR48YQW-7" value="&lt;font style=&quot;font-size: 18px;&quot;&gt;All MicroTasks&lt;/font&gt;" style="rounded=0;whiteSpace=wrap;html=1;fillColor=#FB8C00;" parent="WxhlXX87YYjwKxR48YQW-1" vertex="1">
          <mxGeometry x="294.25" y="908" width="250" height="40" as="geometry" />
        </mxCell>
        <mxCell id="WxhlXX87YYjwKxR48YQW-8" style="edgeStyle=orthogonalEdgeStyle;rounded=0;orthogonalLoop=1;jettySize=auto;html=1;exitX=0.5;exitY=1;exitDx=0;exitDy=0;entryX=0.5;entryY=0;entryDx=0;entryDy=0;" parent="WxhlXX87YYjwKxR48YQW-1" source="WxhlXX87YYjwKxR48YQW-9" target="WxhlXX87YYjwKxR48YQW-10" edge="1">
          <mxGeometry relative="1" as="geometry" />
        </mxCell>
        <mxCell id="WxhlXX87YYjwKxR48YQW-9" value="&lt;font style=&quot;font-size: 18px;&quot;&gt;All MicroTasks&lt;/font&gt;" style="rounded=0;whiteSpace=wrap;html=1;fillColor=#FB8C00;" parent="WxhlXX87YYjwKxR48YQW-1" vertex="1">
          <mxGeometry x="295.25" y="155" width="250" height="40" as="geometry" />
        </mxCell>
        <mxCell id="WxhlXX87YYjwKxR48YQW-10" value="&lt;font style=&quot;font-size: 18px;&quot;&gt;Next Frame?&lt;/font&gt;" style="rhombus;whiteSpace=wrap;html=1;fillColor=#EEEEEE;" parent="WxhlXX87YYjwKxR48YQW-1" vertex="1">
          <mxGeometry x="295.25" y="227" width="250" height="48" as="geometry" />
        </mxCell>
        <mxCell id="WxhlXX87YYjwKxR48YQW-11" style="edgeStyle=orthogonalEdgeStyle;rounded=0;orthogonalLoop=1;jettySize=auto;html=1;exitX=0.5;exitY=1;exitDx=0;exitDy=0;entryX=0.5;entryY=0;entryDx=0;entryDy=0;" parent="WxhlXX87YYjwKxR48YQW-1" source="WxhlXX87YYjwKxR48YQW-12" target="WxhlXX87YYjwKxR48YQW-15" edge="1">
          <mxGeometry relative="1" as="geometry" />
        </mxCell>
        <mxCell id="WxhlXX87YYjwKxR48YQW-12" value="&lt;font style=&quot;font-size: 18px; color: rgb(255, 255, 255);&quot;&gt;All requestAnimationFrame()&lt;/font&gt;" style="rounded=0;whiteSpace=wrap;html=1;fillColor=#43A047;" parent="WxhlXX87YYjwKxR48YQW-1" vertex="1">
          <mxGeometry x="295.5" y="310" width="250" height="38" as="geometry" />
        </mxCell>
        <mxCell id="WxhlXX87YYjwKxR48YQW-13" value="" style="endArrow=classic;html=1;rounded=0;entryX=0.5;entryY=0;entryDx=0;entryDy=0;exitX=0.5;exitY=1;exitDx=0;exitDy=0;" parent="WxhlXX87YYjwKxR48YQW-1" source="WxhlXX87YYjwKxR48YQW-10" target="WxhlXX87YYjwKxR48YQW-12" edge="1">
          <mxGeometry width="50" height="50" relative="1" as="geometry">
            <mxPoint x="495.75" y="280.77499999999986" as="sourcePoint" />
            <mxPoint x="365.25" y="391.55" as="targetPoint" />
            <Array as="points" />
          </mxGeometry>
        </mxCell>
        <mxCell id="WxhlXX87YYjwKxR48YQW-14" value="&lt;font style=&quot;font-size: 18px;&quot;&gt;Yes&lt;/font&gt;" style="text;html=1;align=center;verticalAlign=middle;whiteSpace=wrap;rounded=0;" parent="WxhlXX87YYjwKxR48YQW-1" vertex="1">
          <mxGeometry x="412.5" y="270.55" width="60" height="30" as="geometry" />
        </mxCell>
        <mxCell id="WxhlXX87YYjwKxR48YQW-15" value="&lt;font style=&quot;font-size: 18px;&quot;&gt;All MicroTasks&lt;/font&gt;" style="rounded=0;whiteSpace=wrap;html=1;fillColor=#FB8C00;" parent="WxhlXX87YYjwKxR48YQW-1" vertex="1">
          <mxGeometry x="295.5" y="375" width="250" height="40" as="geometry" />
        </mxCell>
        <mxCell id="WxhlXX87YYjwKxR48YQW-16" value="&lt;font style=&quot;font-size: 18px;&quot;&gt;Free time?*&lt;/font&gt;" style="rhombus;whiteSpace=wrap;html=1;fillColor=#EEEEEE;" parent="WxhlXX87YYjwKxR48YQW-1" vertex="1">
          <mxGeometry x="294.5" y="763" width="250" height="41.55" as="geometry" />
        </mxCell>
        <mxCell id="WxhlXX87YYjwKxR48YQW-17" value="" style="edgeStyle=orthogonalEdgeStyle;rounded=0;orthogonalLoop=1;jettySize=auto;html=1;" parent="WxhlXX87YYjwKxR48YQW-1" source="WxhlXX87YYjwKxR48YQW-18" target="WxhlXX87YYjwKxR48YQW-7" edge="1">
          <mxGeometry relative="1" as="geometry" />
        </mxCell>
        <mxCell id="WxhlXX87YYjwKxR48YQW-18" value="&lt;font style=&quot;font-size: 18px; color: rgb(255, 255, 255);&quot;&gt;One requestIdleCallback()&lt;/font&gt;" style="rounded=0;whiteSpace=wrap;html=1;fillColor=#8E24AA;" parent="WxhlXX87YYjwKxR48YQW-1" vertex="1">
          <mxGeometry x="294.5" y="833" width="250" height="40" as="geometry" />
        </mxCell>
        <mxCell id="WxhlXX87YYjwKxR48YQW-19" style="edgeStyle=orthogonalEdgeStyle;rounded=0;orthogonalLoop=1;jettySize=auto;html=1;exitX=0.5;exitY=1;exitDx=0;exitDy=0;entryX=0.503;entryY=0.037;entryDx=0;entryDy=0;entryPerimeter=0;" parent="WxhlXX87YYjwKxR48YQW-1" source="WxhlXX87YYjwKxR48YQW-20" target="WxhlXX87YYjwKxR48YQW-25" edge="1">
          <mxGeometry relative="1" as="geometry" />
        </mxCell>
        <mxCell id="WxhlXX87YYjwKxR48YQW-20" value="&lt;font style=&quot;font-size: 18px; color: rgb(255, 255, 255);&quot;&gt;Render&lt;/font&gt;" style="rounded=1;whiteSpace=wrap;html=1;fillColor=#1565C0;strokeColor=#000000;shadow=1;glass=0;strokeWidth=6;" parent="WxhlXX87YYjwKxR48YQW-1" vertex="1">
          <mxGeometry x="295.5" y="506.55" width="250" height="40" as="geometry" />
        </mxCell>
        <mxCell id="WxhlXX87YYjwKxR48YQW-21" value="&lt;font style=&quot;font-size: 18px;&quot;&gt;No&lt;/font&gt;" style="text;html=1;align=center;verticalAlign=middle;whiteSpace=wrap;rounded=0;" parent="WxhlXX87YYjwKxR48YQW-1" vertex="1">
          <mxGeometry x="530" y="227" width="60" height="30" as="geometry" />
        </mxCell>
        <mxCell id="WxhlXX87YYjwKxR48YQW-22" value="" style="endArrow=classic;html=1;rounded=0;exitX=0.5;exitY=1;exitDx=0;exitDy=0;entryX=0.5;entryY=0;entryDx=0;entryDy=0;" parent="WxhlXX87YYjwKxR48YQW-1" source="WxhlXX87YYjwKxR48YQW-16" target="WxhlXX87YYjwKxR48YQW-18" edge="1">
          <mxGeometry width="50" height="50" relative="1" as="geometry">
            <mxPoint x="475" y="893" as="sourcePoint" />
            <mxPoint x="525" y="843" as="targetPoint" />
          </mxGeometry>
        </mxCell>
        <mxCell id="WxhlXX87YYjwKxR48YQW-24" value="&lt;font style=&quot;font-size: 18px;&quot;&gt;Yes&lt;/font&gt;" style="text;html=1;align=center;verticalAlign=middle;whiteSpace=wrap;rounded=0;" parent="WxhlXX87YYjwKxR48YQW-1" vertex="1">
          <mxGeometry x="408" y="801" width="60" height="30" as="geometry" />
        </mxCell>
        <mxCell id="WxhlXX87YYjwKxR48YQW-25" value="&lt;font style=&quot;font-size: 20px;&quot;&gt;All MicroTasks&lt;/font&gt;" style="rounded=0;whiteSpace=wrap;html=1;fillColor=#FB8C00;glass=0;gradientColor=none;" parent="WxhlXX87YYjwKxR48YQW-1" vertex="1">
          <mxGeometry x="294.5" y="566.55" width="250" height="40" as="geometry" />
        </mxCell>
        <mxCell id="WxhlXX87YYjwKxR48YQW-26" value="" style="endArrow=none;html=1;rounded=0;entryX=0.5;entryY=1;entryDx=0;entryDy=0;" parent="WxhlXX87YYjwKxR48YQW-1" source="WxhlXX87YYjwKxR48YQW-28" target="WxhlXX87YYjwKxR48YQW-7" edge="1">
          <mxGeometry width="50" height="50" relative="1" as="geometry">
            <mxPoint x="419.5" y="733" as="sourcePoint" />
            <mxPoint x="475" y="793" as="targetPoint" />
            <Array as="points">
              <mxPoint x="264.5" y="733" />
              <mxPoint x="264.5" y="988" />
              <mxPoint x="419.5" y="988" />
            </Array>
          </mxGeometry>
        </mxCell>
        <mxCell id="WxhlXX87YYjwKxR48YQW-27" value="" style="edgeStyle=orthogonalEdgeStyle;rounded=0;orthogonalLoop=1;jettySize=auto;html=1;endArrow=none;startFill=0;" parent="WxhlXX87YYjwKxR48YQW-1" source="WxhlXX87YYjwKxR48YQW-28" target="WxhlXX87YYjwKxR48YQW-30" edge="1">
          <mxGeometry relative="1" as="geometry" />
        </mxCell>
        <mxCell id="WxhlXX87YYjwKxR48YQW-28" value="" style="shape=ellipse;fillColor=#0065FF;strokeColor=none;html=1;sketch=0;" parent="WxhlXX87YYjwKxR48YQW-1" vertex="1">
          <mxGeometry x="414.5" y="728" width="10" height="10" as="geometry" />
        </mxCell>
        <mxCell id="WxhlXX87YYjwKxR48YQW-29" value="&lt;font style=&quot;font-size: 18px;&quot;&gt;No&lt;/font&gt;" style="text;html=1;align=center;verticalAlign=middle;whiteSpace=wrap;rounded=0;" parent="WxhlXX87YYjwKxR48YQW-1" vertex="1">
          <mxGeometry x="533.25" y="755" width="60" height="30" as="geometry" />
        </mxCell>
        <mxCell id="WxhlXX87YYjwKxR48YQW-30" value="&lt;font style=&quot;color: rgb(0, 0, 0);&quot;&gt;&lt;span style=&quot;font-size: 18px;&quot;&gt;&lt;font style=&quot;color: rgb(0, 0, 0);&quot;&gt;No Macrotasks?&lt;/font&gt;&lt;/span&gt;&lt;/font&gt;" style="rhombus;whiteSpace=wrap;html=1;fillColor=#EEEEEE;" parent="WxhlXX87YYjwKxR48YQW-1" vertex="1">
          <mxGeometry x="294.5" y="645.5" width="250" height="60" as="geometry" />
        </mxCell>
        <mxCell id="WxhlXX87YYjwKxR48YQW-31" value="&lt;font style=&quot;font-size: 18px;&quot;&gt;Yes&lt;/font&gt;" style="text;html=1;align=center;verticalAlign=middle;whiteSpace=wrap;rounded=0;" parent="WxhlXX87YYjwKxR48YQW-1" vertex="1">
          <mxGeometry x="408" y="701.5" width="60" height="30" as="geometry" />
        </mxCell>
        <mxCell id="WxhlXX87YYjwKxR48YQW-32" value="" style="endArrow=none;html=1;rounded=0;exitX=1;exitY=0.5;exitDx=0;exitDy=0;strokeWidth=5;" parent="WxhlXX87YYjwKxR48YQW-1" edge="1">
          <mxGeometry width="50" height="50" relative="1" as="geometry">
            <mxPoint x="604.5" y="674.5" as="sourcePoint" />
            <mxPoint x="604.5" y="675" as="targetPoint" />
          </mxGeometry>
        </mxCell>
        <mxCell id="WxhlXX87YYjwKxR48YQW-33" value="" style="endArrow=none;html=1;rounded=0;exitX=1;exitY=0.5;exitDx=0;exitDy=0;strokeWidth=5;" parent="WxhlXX87YYjwKxR48YQW-1" source="WxhlXX87YYjwKxR48YQW-37" edge="1">
          <mxGeometry width="50" height="50" relative="1" as="geometry">
            <mxPoint x="542.5" y="675" as="sourcePoint" />
            <mxPoint x="640" y="675" as="targetPoint" />
          </mxGeometry>
        </mxCell>
        <mxCell id="WxhlXX87YYjwKxR48YQW-34" value="&lt;font style=&quot;font-size: 18px;&quot;&gt;No&lt;/font&gt;" style="text;html=1;align=center;verticalAlign=middle;whiteSpace=wrap;rounded=0;" parent="WxhlXX87YYjwKxR48YQW-1" vertex="1">
          <mxGeometry x="534.5" y="648" width="57.5" height="27" as="geometry" />
        </mxCell>
        <mxCell id="WxhlXX87YYjwKxR48YQW-35" value="&lt;font style=&quot;font-size: 18px;&quot;&gt;&lt;span style=&quot;&quot; data-src-align=&quot;14:1&quot; class=&quot;EzKURWReUAB5oZgtQNkl&quot;&gt;Render?&lt;/span&gt;&lt;/font&gt;" style="rhombus;whiteSpace=wrap;html=1;fillColor=#EEEEEE;" parent="WxhlXX87YYjwKxR48YQW-1" vertex="1">
          <mxGeometry x="295.5" y="435" width="250" height="41.55" as="geometry" />
        </mxCell>
        <mxCell id="WxhlXX87YYjwKxR48YQW-36" value="" style="endArrow=none;html=1;rounded=0;exitX=1;exitY=0.5;exitDx=0;exitDy=0;strokeWidth=5;" parent="WxhlXX87YYjwKxR48YQW-1" source="WxhlXX87YYjwKxR48YQW-30" target="WxhlXX87YYjwKxR48YQW-37" edge="1">
          <mxGeometry width="50" height="50" relative="1" as="geometry">
            <mxPoint x="543" y="676" as="sourcePoint" />
            <mxPoint x="640" y="675" as="targetPoint" />
          </mxGeometry>
        </mxCell>
        <mxCell id="WxhlXX87YYjwKxR48YQW-37" value="" style="shape=ellipse;fillColor=#0065FF;strokeColor=none;html=1;sketch=0;" parent="WxhlXX87YYjwKxR48YQW-1" vertex="1">
          <mxGeometry x="630" y="670.5" width="10" height="10" as="geometry" />
        </mxCell>
        <mxCell id="WxhlXX87YYjwKxR48YQW-38" value="&lt;font style=&quot;font-size: 18px;&quot;&gt;Yes&lt;/font&gt;" style="text;html=1;align=center;verticalAlign=middle;whiteSpace=wrap;rounded=0;" parent="WxhlXX87YYjwKxR48YQW-1" vertex="1">
          <mxGeometry x="412.5" y="471" width="60" height="30" as="geometry" />
        </mxCell>
        <mxCell id="WxhlXX87YYjwKxR48YQW-39" value="&lt;font style=&quot;font-size: 18px;&quot;&gt;No&lt;/font&gt;" style="text;html=1;align=center;verticalAlign=middle;whiteSpace=wrap;rounded=0;" parent="WxhlXX87YYjwKxR48YQW-1" vertex="1">
          <mxGeometry x="533.75" y="430" width="57.5" height="27" as="geometry" />
        </mxCell>
        <mxCell id="WxhlXX87YYjwKxR48YQW-40" value="" style="endArrow=none;html=1;rounded=0;entryX=1;entryY=0.5;entryDx=0;entryDy=0;exitX=1;exitY=0.5;exitDx=0;exitDy=0;" parent="WxhlXX87YYjwKxR48YQW-1" source="WxhlXX87YYjwKxR48YQW-5" target="WxhlXX87YYjwKxR48YQW-35" edge="1">
          <mxGeometry width="50" height="50" relative="1" as="geometry">
            <mxPoint x="410" y="635" as="sourcePoint" />
            <mxPoint x="460" y="585" as="targetPoint" />
            <Array as="points">
              <mxPoint x="590" y="620" />
              <mxPoint x="590" y="455" />
            </Array>
          </mxGeometry>
        </mxCell>
        <mxCell id="WxhlXX87YYjwKxR48YQW-41" value="" style="endArrow=none;html=1;rounded=0;exitX=1;exitY=0.5;exitDx=0;exitDy=0;" parent="WxhlXX87YYjwKxR48YQW-1" source="WxhlXX87YYjwKxR48YQW-10" edge="1">
          <mxGeometry width="50" height="50" relative="1" as="geometry">
            <mxPoint x="450" y="495" as="sourcePoint" />
            <mxPoint x="590" y="455" as="targetPoint" />
            <Array as="points">
              <mxPoint x="590" y="251" />
            </Array>
          </mxGeometry>
        </mxCell>
        <mxCell id="WxhlXX87YYjwKxR48YQW-42" value="" style="shape=ellipse;fillColor=#0065FF;strokeColor=none;html=1;sketch=0;" parent="WxhlXX87YYjwKxR48YQW-1" vertex="1">
          <mxGeometry x="584.25" y="449.78" width="10" height="10" as="geometry" />
        </mxCell>
        <mxCell id="WxhlXX87YYjwKxR48YQW-43" value="" style="endArrow=classic;html=1;rounded=0;exitX=0.5;exitY=1;exitDx=0;exitDy=0;entryX=0.5;entryY=0;entryDx=0;entryDy=0;" parent="WxhlXX87YYjwKxR48YQW-1" source="WxhlXX87YYjwKxR48YQW-15" target="WxhlXX87YYjwKxR48YQW-35" edge="1">
          <mxGeometry width="50" height="50" relative="1" as="geometry">
            <mxPoint x="360" y="505" as="sourcePoint" />
            <mxPoint x="410" y="455" as="targetPoint" />
          </mxGeometry>
        </mxCell>
        <mxCell id="WxhlXX87YYjwKxR48YQW-44" value="" style="endArrow=classic;html=1;rounded=0;exitX=0.5;exitY=1;exitDx=0;exitDy=0;entryX=0.5;entryY=0;entryDx=0;entryDy=0;" parent="WxhlXX87YYjwKxR48YQW-1" source="WxhlXX87YYjwKxR48YQW-35" target="WxhlXX87YYjwKxR48YQW-20" edge="1">
          <mxGeometry width="50" height="50" relative="1" as="geometry">
            <mxPoint x="360" y="505" as="sourcePoint" />
            <mxPoint x="410" y="455" as="targetPoint" />
          </mxGeometry>
        </mxCell>
        <mxCell id="WxhlXX87YYjwKxR48YQW-45" value="" style="ellipse;shape=cloud;whiteSpace=wrap;html=1;fillColor=#464646;gradientColor=none;strokeColor=#666666;" parent="WxhlXX87YYjwKxR48YQW-1" vertex="1">
          <mxGeometry x="239.25" y="353" width="360" height="80" as="geometry" />
        </mxCell>
        <mxCell id="WxhlXX87YYjwKxR48YQW-46" value="" style="ellipse;shape=cloud;whiteSpace=wrap;html=1;fillColor=#464646;gradientColor=none;strokeColor=#666666;" parent="WxhlXX87YYjwKxR48YQW-1" vertex="1">
          <mxGeometry x="239.25" y="546.55" width="360" height="80" as="geometry" />
        </mxCell>
        <mxCell id="WxhlXX87YYjwKxR48YQW-47" value="" style="ellipse;shape=cloud;whiteSpace=wrap;html=1;fillColor=#464646;gradientColor=none;strokeColor=#666666;" parent="WxhlXX87YYjwKxR48YQW-1" vertex="1">
          <mxGeometry x="234.25" y="885" width="360" height="80" as="geometry" />
        </mxCell>
        <mxCell id="WxhlXX87YYjwKxR48YQW-48" value="" style="ellipse;shape=cloud;whiteSpace=wrap;html=1;fillColor=#464646;gradientColor=none;strokeColor=#666666;" parent="WxhlXX87YYjwKxR48YQW-1" vertex="1">
          <mxGeometry x="140" y="535" width="547" height="578.45" as="geometry" />
        </mxCell>
        <mxCell id="WxhlXX87YYjwKxR48YQW-49" value="" style="ellipse;shape=cloud;whiteSpace=wrap;html=1;fillColor=#464646;gradientColor=none;strokeColor=#666666;" parent="WxhlXX87YYjwKxR48YQW-1" vertex="1">
          <mxGeometry x="220.5" y="173.1" width="419.5" height="276.68" as="geometry" />
        </mxCell>
        <mxCell id="Awg3OYmWxlwkJrKREBUI-2" value="&lt;font style=&quot;font-size: 18px;&quot;&gt;One MacroTask&lt;/font&gt;" style="rounded=0;whiteSpace=wrap;html=1;fillColor=#FBC02D;" vertex="1" parent="WxhlXX87YYjwKxR48YQW-1">
          <mxGeometry x="294.25" y="86" width="250" height="40" as="geometry" />
        </mxCell>
      </root>
    </mxGraphModel>
  </diagram>
  <diagram name="6" id="0kWIsr4X1-yoAqSmmAit">
    <mxGraphModel dx="1050" dy="717" grid="1" gridSize="10" guides="1" tooltips="1" connect="1" arrows="1" fold="1" page="1" pageScale="1" pageWidth="827" pageHeight="1169" math="0" shadow="0">
      <root>
        <mxCell id="NGhBaPLN1iKIhBUSDopw-0" />
        <mxCell id="NGhBaPLN1iKIhBUSDopw-1" parent="NGhBaPLN1iKIhBUSDopw-0" />
        <mxCell id="XXJnvNekAmMhcfOruVR--0" value="&lt;font style=&quot;font-size: 18px;&quot;&gt;One MacroTask&lt;/font&gt;" style="rounded=0;whiteSpace=wrap;html=1;fillColor=#FBC02D;" vertex="1" parent="NGhBaPLN1iKIhBUSDopw-1">
          <mxGeometry x="312.25" y="70" width="250" height="40" as="geometry" />
        </mxCell>
        <mxCell id="XXJnvNekAmMhcfOruVR--1" value="&lt;font style=&quot;font-size: 18px;&quot;&gt;One MacroTask&lt;/font&gt;" style="rounded=0;whiteSpace=wrap;html=1;fillColor=#FBC02D;" vertex="1" parent="NGhBaPLN1iKIhBUSDopw-1">
          <mxGeometry x="304.25" y="78" width="250" height="40" as="geometry" />
        </mxCell>
        <mxCell id="XXJnvNekAmMhcfOruVR--3" value="" style="endArrow=classic;html=1;rounded=0;exitX=1.016;exitY=0.495;exitDx=0;exitDy=0;entryX=0.5;entryY=0;entryDx=0;entryDy=0;strokeWidth=5;exitPerimeter=0;" edge="1" parent="NGhBaPLN1iKIhBUSDopw-1" target="XXJnvNekAmMhcfOruVR--2">
          <mxGeometry width="50" height="50" relative="1" as="geometry">
            <mxPoint x="547.75" y="785" as="sourcePoint" />
            <mxPoint x="449.25" y="86" as="targetPoint" />
            <Array as="points">
              <mxPoint x="634.25" y="785" />
              <mxPoint x="634.25" y="692" />
              <mxPoint x="634.75" y="38" />
              <mxPoint x="419.75" y="38" />
            </Array>
          </mxGeometry>
        </mxCell>
        <mxCell id="NGhBaPLN1iKIhBUSDopw-2" value="" style="endArrow=classic;html=1;rounded=0;exitX=0.5;exitY=1;exitDx=0;exitDy=0;entryX=0.5;entryY=0;entryDx=0;entryDy=0;" parent="NGhBaPLN1iKIhBUSDopw-1" source="NGhBaPLN1iKIhBUSDopw-30" target="NGhBaPLN1iKIhBUSDopw-16" edge="1">
          <mxGeometry width="50" height="50" relative="1" as="geometry">
            <mxPoint x="402" y="715" as="sourcePoint" />
            <mxPoint x="452" y="665" as="targetPoint" />
          </mxGeometry>
        </mxCell>
        <mxCell id="NGhBaPLN1iKIhBUSDopw-3" value="" style="endArrow=classic;html=1;rounded=0;exitX=0.5;exitY=1;exitDx=0;exitDy=0;entryX=0.5;entryY=0;entryDx=0;entryDy=0;" parent="NGhBaPLN1iKIhBUSDopw-1" source="NGhBaPLN1iKIhBUSDopw-25" target="NGhBaPLN1iKIhBUSDopw-30" edge="1">
          <mxGeometry width="50" height="50" relative="1" as="geometry">
            <mxPoint x="400" y="645" as="sourcePoint" />
            <mxPoint x="450" y="595" as="targetPoint" />
          </mxGeometry>
        </mxCell>
        <mxCell id="NGhBaPLN1iKIhBUSDopw-4" style="edgeStyle=orthogonalEdgeStyle;rounded=0;orthogonalLoop=1;jettySize=auto;html=1;exitX=0.5;exitY=1;exitDx=0;exitDy=0;entryX=0.5;entryY=0;entryDx=0;entryDy=0;" parent="NGhBaPLN1iKIhBUSDopw-1" target="NGhBaPLN1iKIhBUSDopw-9" edge="1">
          <mxGeometry relative="1" as="geometry">
            <mxPoint x="420" y="125" as="sourcePoint" />
          </mxGeometry>
        </mxCell>
        <mxCell id="NGhBaPLN1iKIhBUSDopw-5" value="" style="shape=ellipse;fillColor=#0065FF;strokeColor=none;html=1;sketch=0;" parent="NGhBaPLN1iKIhBUSDopw-1" vertex="1">
          <mxGeometry x="414.5" y="615" width="10" height="10" as="geometry" />
        </mxCell>
        <mxCell id="NGhBaPLN1iKIhBUSDopw-7" value="&lt;font style=&quot;font-size: 18px;&quot;&gt;All MicroTasks&lt;/font&gt;" style="rounded=0;whiteSpace=wrap;html=1;fillColor=#FB8C00;" parent="NGhBaPLN1iKIhBUSDopw-1" vertex="1">
          <mxGeometry x="294.25" y="908" width="250" height="40" as="geometry" />
        </mxCell>
        <mxCell id="NGhBaPLN1iKIhBUSDopw-8" style="edgeStyle=orthogonalEdgeStyle;rounded=0;orthogonalLoop=1;jettySize=auto;html=1;exitX=0.5;exitY=1;exitDx=0;exitDy=0;entryX=0.5;entryY=0;entryDx=0;entryDy=0;" parent="NGhBaPLN1iKIhBUSDopw-1" source="NGhBaPLN1iKIhBUSDopw-9" target="NGhBaPLN1iKIhBUSDopw-10" edge="1">
          <mxGeometry relative="1" as="geometry" />
        </mxCell>
        <mxCell id="NGhBaPLN1iKIhBUSDopw-9" value="&lt;font style=&quot;font-size: 18px;&quot;&gt;All MicroTasks&lt;/font&gt;" style="rounded=0;whiteSpace=wrap;html=1;fillColor=#FB8C00;" parent="NGhBaPLN1iKIhBUSDopw-1" vertex="1">
          <mxGeometry x="295.25" y="155" width="250" height="40" as="geometry" />
        </mxCell>
        <mxCell id="NGhBaPLN1iKIhBUSDopw-10" value="&lt;font style=&quot;font-size: 18px;&quot;&gt;Next Frame?&lt;/font&gt;" style="rhombus;whiteSpace=wrap;html=1;fillColor=#EEEEEE;" parent="NGhBaPLN1iKIhBUSDopw-1" vertex="1">
          <mxGeometry x="295.25" y="227" width="250" height="48" as="geometry" />
        </mxCell>
        <mxCell id="NGhBaPLN1iKIhBUSDopw-11" style="edgeStyle=orthogonalEdgeStyle;rounded=0;orthogonalLoop=1;jettySize=auto;html=1;exitX=0.5;exitY=1;exitDx=0;exitDy=0;entryX=0.5;entryY=0;entryDx=0;entryDy=0;" parent="NGhBaPLN1iKIhBUSDopw-1" source="NGhBaPLN1iKIhBUSDopw-12" target="NGhBaPLN1iKIhBUSDopw-15" edge="1">
          <mxGeometry relative="1" as="geometry" />
        </mxCell>
        <mxCell id="NGhBaPLN1iKIhBUSDopw-12" value="&lt;font style=&quot;font-size: 18px; color: rgb(255, 255, 255);&quot;&gt;All requestAnimationFrame()&lt;/font&gt;" style="rounded=0;whiteSpace=wrap;html=1;fillColor=#43A047;" parent="NGhBaPLN1iKIhBUSDopw-1" vertex="1">
          <mxGeometry x="295.5" y="310" width="250" height="38" as="geometry" />
        </mxCell>
        <mxCell id="NGhBaPLN1iKIhBUSDopw-13" value="" style="endArrow=classic;html=1;rounded=0;entryX=0.5;entryY=0;entryDx=0;entryDy=0;exitX=0.5;exitY=1;exitDx=0;exitDy=0;" parent="NGhBaPLN1iKIhBUSDopw-1" source="NGhBaPLN1iKIhBUSDopw-10" target="NGhBaPLN1iKIhBUSDopw-12" edge="1">
          <mxGeometry width="50" height="50" relative="1" as="geometry">
            <mxPoint x="495.75" y="280.77499999999986" as="sourcePoint" />
            <mxPoint x="365.25" y="391.55" as="targetPoint" />
            <Array as="points" />
          </mxGeometry>
        </mxCell>
        <mxCell id="NGhBaPLN1iKIhBUSDopw-14" value="&lt;font style=&quot;font-size: 18px;&quot;&gt;Yes&lt;/font&gt;" style="text;html=1;align=center;verticalAlign=middle;whiteSpace=wrap;rounded=0;" parent="NGhBaPLN1iKIhBUSDopw-1" vertex="1">
          <mxGeometry x="412.5" y="270.55" width="60" height="30" as="geometry" />
        </mxCell>
        <mxCell id="NGhBaPLN1iKIhBUSDopw-15" value="&lt;font style=&quot;font-size: 18px;&quot;&gt;All MicroTasks&lt;/font&gt;" style="rounded=0;whiteSpace=wrap;html=1;fillColor=#FB8C00;" parent="NGhBaPLN1iKIhBUSDopw-1" vertex="1">
          <mxGeometry x="295.5" y="375" width="250" height="40" as="geometry" />
        </mxCell>
        <mxCell id="NGhBaPLN1iKIhBUSDopw-16" value="&lt;font style=&quot;font-size: 18px;&quot;&gt;Free time?*&lt;/font&gt;" style="rhombus;whiteSpace=wrap;html=1;fillColor=#EEEEEE;" parent="NGhBaPLN1iKIhBUSDopw-1" vertex="1">
          <mxGeometry x="294.5" y="763" width="250" height="41.55" as="geometry" />
        </mxCell>
        <mxCell id="NGhBaPLN1iKIhBUSDopw-17" value="" style="edgeStyle=orthogonalEdgeStyle;rounded=0;orthogonalLoop=1;jettySize=auto;html=1;" parent="NGhBaPLN1iKIhBUSDopw-1" source="NGhBaPLN1iKIhBUSDopw-18" target="NGhBaPLN1iKIhBUSDopw-7" edge="1">
          <mxGeometry relative="1" as="geometry" />
        </mxCell>
        <mxCell id="NGhBaPLN1iKIhBUSDopw-18" value="&lt;font style=&quot;font-size: 18px; color: rgb(255, 255, 255);&quot;&gt;One requestIdleCallback()&lt;/font&gt;" style="rounded=0;whiteSpace=wrap;html=1;fillColor=#8E24AA;" parent="NGhBaPLN1iKIhBUSDopw-1" vertex="1">
          <mxGeometry x="294.5" y="833" width="250" height="40" as="geometry" />
        </mxCell>
        <mxCell id="NGhBaPLN1iKIhBUSDopw-19" style="edgeStyle=orthogonalEdgeStyle;rounded=0;orthogonalLoop=1;jettySize=auto;html=1;exitX=0.5;exitY=1;exitDx=0;exitDy=0;entryX=0.503;entryY=0.037;entryDx=0;entryDy=0;entryPerimeter=0;" parent="NGhBaPLN1iKIhBUSDopw-1" source="NGhBaPLN1iKIhBUSDopw-20" target="NGhBaPLN1iKIhBUSDopw-25" edge="1">
          <mxGeometry relative="1" as="geometry" />
        </mxCell>
        <mxCell id="NGhBaPLN1iKIhBUSDopw-20" value="&lt;font style=&quot;font-size: 18px; color: rgb(255, 255, 255);&quot;&gt;Render&lt;/font&gt;" style="rounded=1;whiteSpace=wrap;html=1;fillColor=#1565C0;strokeColor=#000000;shadow=1;glass=0;strokeWidth=6;" parent="NGhBaPLN1iKIhBUSDopw-1" vertex="1">
          <mxGeometry x="295.5" y="506.55" width="250" height="40" as="geometry" />
        </mxCell>
        <mxCell id="NGhBaPLN1iKIhBUSDopw-21" value="&lt;font style=&quot;font-size: 18px;&quot;&gt;No&lt;/font&gt;" style="text;html=1;align=center;verticalAlign=middle;whiteSpace=wrap;rounded=0;" parent="NGhBaPLN1iKIhBUSDopw-1" vertex="1">
          <mxGeometry x="530" y="227" width="60" height="30" as="geometry" />
        </mxCell>
        <mxCell id="NGhBaPLN1iKIhBUSDopw-22" value="" style="endArrow=classic;html=1;rounded=0;exitX=0.5;exitY=1;exitDx=0;exitDy=0;entryX=0.5;entryY=0;entryDx=0;entryDy=0;" parent="NGhBaPLN1iKIhBUSDopw-1" source="NGhBaPLN1iKIhBUSDopw-16" target="NGhBaPLN1iKIhBUSDopw-18" edge="1">
          <mxGeometry width="50" height="50" relative="1" as="geometry">
            <mxPoint x="475" y="893" as="sourcePoint" />
            <mxPoint x="525" y="843" as="targetPoint" />
          </mxGeometry>
        </mxCell>
        <mxCell id="NGhBaPLN1iKIhBUSDopw-24" value="&lt;font style=&quot;font-size: 18px;&quot;&gt;Yes&lt;/font&gt;" style="text;html=1;align=center;verticalAlign=middle;whiteSpace=wrap;rounded=0;" parent="NGhBaPLN1iKIhBUSDopw-1" vertex="1">
          <mxGeometry x="408" y="801" width="60" height="30" as="geometry" />
        </mxCell>
        <mxCell id="NGhBaPLN1iKIhBUSDopw-25" value="&lt;font style=&quot;font-size: 20px;&quot;&gt;All MicroTasks&lt;/font&gt;" style="rounded=0;whiteSpace=wrap;html=1;fillColor=#FB8C00;glass=0;gradientColor=none;" parent="NGhBaPLN1iKIhBUSDopw-1" vertex="1">
          <mxGeometry x="294.5" y="566.55" width="250" height="40" as="geometry" />
        </mxCell>
        <mxCell id="NGhBaPLN1iKIhBUSDopw-26" value="" style="endArrow=none;html=1;rounded=0;entryX=0.5;entryY=1;entryDx=0;entryDy=0;" parent="NGhBaPLN1iKIhBUSDopw-1" source="NGhBaPLN1iKIhBUSDopw-28" target="NGhBaPLN1iKIhBUSDopw-7" edge="1">
          <mxGeometry width="50" height="50" relative="1" as="geometry">
            <mxPoint x="419.5" y="733" as="sourcePoint" />
            <mxPoint x="475" y="793" as="targetPoint" />
            <Array as="points">
              <mxPoint x="264.5" y="733" />
              <mxPoint x="264.5" y="988" />
              <mxPoint x="419.5" y="988" />
            </Array>
          </mxGeometry>
        </mxCell>
        <mxCell id="NGhBaPLN1iKIhBUSDopw-27" value="" style="edgeStyle=orthogonalEdgeStyle;rounded=0;orthogonalLoop=1;jettySize=auto;html=1;endArrow=none;startFill=0;" parent="NGhBaPLN1iKIhBUSDopw-1" source="NGhBaPLN1iKIhBUSDopw-28" target="NGhBaPLN1iKIhBUSDopw-30" edge="1">
          <mxGeometry relative="1" as="geometry" />
        </mxCell>
        <mxCell id="NGhBaPLN1iKIhBUSDopw-28" value="" style="shape=ellipse;fillColor=#0065FF;strokeColor=none;html=1;sketch=0;" parent="NGhBaPLN1iKIhBUSDopw-1" vertex="1">
          <mxGeometry x="414.5" y="728" width="10" height="10" as="geometry" />
        </mxCell>
        <mxCell id="NGhBaPLN1iKIhBUSDopw-29" value="&lt;font style=&quot;font-size: 18px;&quot;&gt;No&lt;/font&gt;" style="text;html=1;align=center;verticalAlign=middle;whiteSpace=wrap;rounded=0;" parent="NGhBaPLN1iKIhBUSDopw-1" vertex="1">
          <mxGeometry x="533.25" y="755" width="60" height="30" as="geometry" />
        </mxCell>
        <mxCell id="NGhBaPLN1iKIhBUSDopw-30" value="&lt;font style=&quot;color: rgb(0, 0, 0);&quot;&gt;&lt;span style=&quot;font-size: 18px;&quot;&gt;&lt;font style=&quot;color: rgb(0, 0, 0);&quot;&gt;No Macrotasks?&lt;/font&gt;&lt;/span&gt;&lt;/font&gt;" style="rhombus;whiteSpace=wrap;html=1;fillColor=#EEEEEE;" parent="NGhBaPLN1iKIhBUSDopw-1" vertex="1">
          <mxGeometry x="294.5" y="645.5" width="250" height="60" as="geometry" />
        </mxCell>
        <mxCell id="NGhBaPLN1iKIhBUSDopw-31" value="&lt;font style=&quot;font-size: 18px;&quot;&gt;Yes&lt;/font&gt;" style="text;html=1;align=center;verticalAlign=middle;whiteSpace=wrap;rounded=0;" parent="NGhBaPLN1iKIhBUSDopw-1" vertex="1">
          <mxGeometry x="408" y="701.5" width="60" height="30" as="geometry" />
        </mxCell>
        <mxCell id="NGhBaPLN1iKIhBUSDopw-32" value="" style="endArrow=none;html=1;rounded=0;exitX=1;exitY=0.5;exitDx=0;exitDy=0;strokeWidth=5;" parent="NGhBaPLN1iKIhBUSDopw-1" edge="1">
          <mxGeometry width="50" height="50" relative="1" as="geometry">
            <mxPoint x="604.5" y="674.5" as="sourcePoint" />
            <mxPoint x="604.5" y="675" as="targetPoint" />
          </mxGeometry>
        </mxCell>
        <mxCell id="NGhBaPLN1iKIhBUSDopw-33" value="" style="endArrow=none;html=1;rounded=0;exitX=1;exitY=0.5;exitDx=0;exitDy=0;strokeWidth=5;" parent="NGhBaPLN1iKIhBUSDopw-1" source="NGhBaPLN1iKIhBUSDopw-37" edge="1">
          <mxGeometry width="50" height="50" relative="1" as="geometry">
            <mxPoint x="542.5" y="675" as="sourcePoint" />
            <mxPoint x="640" y="675" as="targetPoint" />
          </mxGeometry>
        </mxCell>
        <mxCell id="NGhBaPLN1iKIhBUSDopw-34" value="&lt;font style=&quot;font-size: 18px;&quot;&gt;No&lt;/font&gt;" style="text;html=1;align=center;verticalAlign=middle;whiteSpace=wrap;rounded=0;" parent="NGhBaPLN1iKIhBUSDopw-1" vertex="1">
          <mxGeometry x="534.5" y="648" width="57.5" height="27" as="geometry" />
        </mxCell>
        <mxCell id="NGhBaPLN1iKIhBUSDopw-35" value="&lt;font style=&quot;font-size: 18px;&quot;&gt;&lt;span style=&quot;&quot; data-src-align=&quot;14:1&quot; class=&quot;EzKURWReUAB5oZgtQNkl&quot;&gt;Render?&lt;/span&gt;&lt;/font&gt;" style="rhombus;whiteSpace=wrap;html=1;fillColor=#EEEEEE;" parent="NGhBaPLN1iKIhBUSDopw-1" vertex="1">
          <mxGeometry x="295.5" y="435" width="250" height="41.55" as="geometry" />
        </mxCell>
        <mxCell id="NGhBaPLN1iKIhBUSDopw-36" value="" style="endArrow=none;html=1;rounded=0;exitX=1;exitY=0.5;exitDx=0;exitDy=0;strokeWidth=5;" parent="NGhBaPLN1iKIhBUSDopw-1" source="NGhBaPLN1iKIhBUSDopw-30" target="NGhBaPLN1iKIhBUSDopw-37" edge="1">
          <mxGeometry width="50" height="50" relative="1" as="geometry">
            <mxPoint x="543" y="676" as="sourcePoint" />
            <mxPoint x="640" y="675" as="targetPoint" />
          </mxGeometry>
        </mxCell>
        <mxCell id="NGhBaPLN1iKIhBUSDopw-37" value="" style="shape=ellipse;fillColor=#0065FF;strokeColor=none;html=1;sketch=0;" parent="NGhBaPLN1iKIhBUSDopw-1" vertex="1">
          <mxGeometry x="630" y="670.5" width="10" height="10" as="geometry" />
        </mxCell>
        <mxCell id="NGhBaPLN1iKIhBUSDopw-38" value="&lt;font style=&quot;font-size: 18px;&quot;&gt;Yes&lt;/font&gt;" style="text;html=1;align=center;verticalAlign=middle;whiteSpace=wrap;rounded=0;" parent="NGhBaPLN1iKIhBUSDopw-1" vertex="1">
          <mxGeometry x="412.5" y="471" width="60" height="30" as="geometry" />
        </mxCell>
        <mxCell id="NGhBaPLN1iKIhBUSDopw-39" value="&lt;font style=&quot;font-size: 18px;&quot;&gt;No&lt;/font&gt;" style="text;html=1;align=center;verticalAlign=middle;whiteSpace=wrap;rounded=0;" parent="NGhBaPLN1iKIhBUSDopw-1" vertex="1">
          <mxGeometry x="533.75" y="430" width="57.5" height="27" as="geometry" />
        </mxCell>
        <mxCell id="NGhBaPLN1iKIhBUSDopw-40" value="" style="endArrow=none;html=1;rounded=0;entryX=1;entryY=0.5;entryDx=0;entryDy=0;exitX=1;exitY=0.5;exitDx=0;exitDy=0;" parent="NGhBaPLN1iKIhBUSDopw-1" source="NGhBaPLN1iKIhBUSDopw-5" target="NGhBaPLN1iKIhBUSDopw-35" edge="1">
          <mxGeometry width="50" height="50" relative="1" as="geometry">
            <mxPoint x="410" y="635" as="sourcePoint" />
            <mxPoint x="460" y="585" as="targetPoint" />
            <Array as="points">
              <mxPoint x="590" y="620" />
              <mxPoint x="590" y="455" />
            </Array>
          </mxGeometry>
        </mxCell>
        <mxCell id="NGhBaPLN1iKIhBUSDopw-41" value="" style="endArrow=none;html=1;rounded=0;exitX=1;exitY=0.5;exitDx=0;exitDy=0;" parent="NGhBaPLN1iKIhBUSDopw-1" source="NGhBaPLN1iKIhBUSDopw-10" edge="1">
          <mxGeometry width="50" height="50" relative="1" as="geometry">
            <mxPoint x="450" y="495" as="sourcePoint" />
            <mxPoint x="590" y="455" as="targetPoint" />
            <Array as="points">
              <mxPoint x="590" y="251" />
            </Array>
          </mxGeometry>
        </mxCell>
        <mxCell id="NGhBaPLN1iKIhBUSDopw-42" value="" style="shape=ellipse;fillColor=#0065FF;strokeColor=none;html=1;sketch=0;" parent="NGhBaPLN1iKIhBUSDopw-1" vertex="1">
          <mxGeometry x="584.25" y="449.78" width="10" height="10" as="geometry" />
        </mxCell>
        <mxCell id="NGhBaPLN1iKIhBUSDopw-43" value="" style="endArrow=classic;html=1;rounded=0;exitX=0.5;exitY=1;exitDx=0;exitDy=0;entryX=0.5;entryY=0;entryDx=0;entryDy=0;" parent="NGhBaPLN1iKIhBUSDopw-1" source="NGhBaPLN1iKIhBUSDopw-15" target="NGhBaPLN1iKIhBUSDopw-35" edge="1">
          <mxGeometry width="50" height="50" relative="1" as="geometry">
            <mxPoint x="360" y="505" as="sourcePoint" />
            <mxPoint x="410" y="455" as="targetPoint" />
          </mxGeometry>
        </mxCell>
        <mxCell id="NGhBaPLN1iKIhBUSDopw-44" value="" style="endArrow=classic;html=1;rounded=0;exitX=0.5;exitY=1;exitDx=0;exitDy=0;entryX=0.5;entryY=0;entryDx=0;entryDy=0;" parent="NGhBaPLN1iKIhBUSDopw-1" source="NGhBaPLN1iKIhBUSDopw-35" target="NGhBaPLN1iKIhBUSDopw-20" edge="1">
          <mxGeometry width="50" height="50" relative="1" as="geometry">
            <mxPoint x="360" y="505" as="sourcePoint" />
            <mxPoint x="410" y="455" as="targetPoint" />
          </mxGeometry>
        </mxCell>
        <mxCell id="NGhBaPLN1iKIhBUSDopw-45" value="" style="ellipse;shape=cloud;whiteSpace=wrap;html=1;fillColor=#464646;gradientColor=none;strokeColor=#666666;" parent="NGhBaPLN1iKIhBUSDopw-1" vertex="1">
          <mxGeometry x="239.25" y="353" width="360" height="80" as="geometry" />
        </mxCell>
        <mxCell id="NGhBaPLN1iKIhBUSDopw-47" value="" style="ellipse;shape=cloud;whiteSpace=wrap;html=1;fillColor=#464646;gradientColor=none;strokeColor=#666666;" parent="NGhBaPLN1iKIhBUSDopw-1" vertex="1">
          <mxGeometry x="239.25" y="546.55" width="360" height="80" as="geometry" />
        </mxCell>
        <mxCell id="NGhBaPLN1iKIhBUSDopw-48" value="" style="ellipse;shape=cloud;whiteSpace=wrap;html=1;fillColor=#464646;gradientColor=none;strokeColor=#666666;" parent="NGhBaPLN1iKIhBUSDopw-1" vertex="1">
          <mxGeometry x="234.25" y="885" width="360" height="80" as="geometry" />
        </mxCell>
        <mxCell id="NGhBaPLN1iKIhBUSDopw-49" value="" style="ellipse;shape=cloud;whiteSpace=wrap;html=1;fillColor=#464646;gradientColor=none;strokeColor=#666666;" parent="NGhBaPLN1iKIhBUSDopw-1" vertex="1">
          <mxGeometry x="140" y="535" width="547" height="578.45" as="geometry" />
        </mxCell>
        <mxCell id="XXJnvNekAmMhcfOruVR--2" value="&lt;font style=&quot;font-size: 18px;&quot;&gt;One MacroTask&lt;/font&gt;" style="rounded=0;whiteSpace=wrap;html=1;fillColor=#FBC02D;" vertex="1" parent="NGhBaPLN1iKIhBUSDopw-1">
          <mxGeometry x="294.25" y="86" width="250" height="40" as="geometry" />
        </mxCell>
      </root>
    </mxGraphModel>
  </diagram>
  <diagram name="7" id="L-wtQSXpgTz-JL_ohBSm">
    <mxGraphModel dx="1500" dy="1024" grid="1" gridSize="10" guides="1" tooltips="1" connect="1" arrows="1" fold="1" page="1" pageScale="1" pageWidth="827" pageHeight="1169" math="0" shadow="0">
      <root>
        <mxCell id="RIJwRYrqJC1lwtHgleIF-0" />
        <mxCell id="RIJwRYrqJC1lwtHgleIF-1" parent="RIJwRYrqJC1lwtHgleIF-0" />
        <mxCell id="RIJwRYrqJC1lwtHgleIF-2" value="" style="endArrow=classic;html=1;rounded=0;exitX=0.5;exitY=1;exitDx=0;exitDy=0;entryX=0.5;entryY=0;entryDx=0;entryDy=0;" parent="RIJwRYrqJC1lwtHgleIF-1" source="RIJwRYrqJC1lwtHgleIF-30" target="RIJwRYrqJC1lwtHgleIF-16" edge="1">
          <mxGeometry width="50" height="50" relative="1" as="geometry">
            <mxPoint x="376.75" y="778" as="sourcePoint" />
            <mxPoint x="426.75" y="728" as="targetPoint" />
          </mxGeometry>
        </mxCell>
        <mxCell id="RIJwRYrqJC1lwtHgleIF-3" value="" style="endArrow=classic;html=1;rounded=0;exitX=0.5;exitY=1;exitDx=0;exitDy=0;entryX=0.5;entryY=0;entryDx=0;entryDy=0;" parent="RIJwRYrqJC1lwtHgleIF-1" source="RIJwRYrqJC1lwtHgleIF-25" target="RIJwRYrqJC1lwtHgleIF-30" edge="1">
          <mxGeometry width="50" height="50" relative="1" as="geometry">
            <mxPoint x="374.75" y="708" as="sourcePoint" />
            <mxPoint x="424.75" y="658" as="targetPoint" />
          </mxGeometry>
        </mxCell>
        <mxCell id="RIJwRYrqJC1lwtHgleIF-4" style="edgeStyle=orthogonalEdgeStyle;rounded=0;orthogonalLoop=1;jettySize=auto;html=1;exitX=0.5;exitY=1;exitDx=0;exitDy=0;entryX=0.5;entryY=0;entryDx=0;entryDy=0;" parent="RIJwRYrqJC1lwtHgleIF-1" target="RIJwRYrqJC1lwtHgleIF-9" edge="1">
          <mxGeometry relative="1" as="geometry">
            <mxPoint x="394.75" y="188" as="sourcePoint" />
          </mxGeometry>
        </mxCell>
        <mxCell id="RIJwRYrqJC1lwtHgleIF-5" value="" style="shape=ellipse;fillColor=#0065FF;strokeColor=none;html=1;sketch=0;" parent="RIJwRYrqJC1lwtHgleIF-1" vertex="1">
          <mxGeometry x="389.25" y="678" width="10" height="10" as="geometry" />
        </mxCell>
        <mxCell id="RIJwRYrqJC1lwtHgleIF-7" value="&lt;font style=&quot;font-size: 18px;&quot;&gt;All MicroTasks&lt;/font&gt;" style="rounded=0;whiteSpace=wrap;html=1;fillColor=#FB8C00;" parent="RIJwRYrqJC1lwtHgleIF-1" vertex="1">
          <mxGeometry x="269" y="971" width="250" height="40" as="geometry" />
        </mxCell>
        <mxCell id="RIJwRYrqJC1lwtHgleIF-8" style="edgeStyle=orthogonalEdgeStyle;rounded=0;orthogonalLoop=1;jettySize=auto;html=1;exitX=0.5;exitY=1;exitDx=0;exitDy=0;entryX=0.5;entryY=0;entryDx=0;entryDy=0;" parent="RIJwRYrqJC1lwtHgleIF-1" source="RIJwRYrqJC1lwtHgleIF-9" target="RIJwRYrqJC1lwtHgleIF-10" edge="1">
          <mxGeometry relative="1" as="geometry" />
        </mxCell>
        <mxCell id="RIJwRYrqJC1lwtHgleIF-9" value="&lt;font style=&quot;font-size: 18px;&quot;&gt;All MicroTasks&lt;/font&gt;" style="rounded=0;whiteSpace=wrap;html=1;fillColor=#FB8C00;" parent="RIJwRYrqJC1lwtHgleIF-1" vertex="1">
          <mxGeometry x="270" y="218" width="250" height="40" as="geometry" />
        </mxCell>
        <mxCell id="RIJwRYrqJC1lwtHgleIF-10" value="&lt;font style=&quot;font-size: 18px;&quot;&gt;Next Frame?&lt;/font&gt;" style="rhombus;whiteSpace=wrap;html=1;fillColor=#EEEEEE;" parent="RIJwRYrqJC1lwtHgleIF-1" vertex="1">
          <mxGeometry x="270" y="290" width="250" height="48" as="geometry" />
        </mxCell>
        <mxCell id="RIJwRYrqJC1lwtHgleIF-11" style="edgeStyle=orthogonalEdgeStyle;rounded=0;orthogonalLoop=1;jettySize=auto;html=1;exitX=0.5;exitY=1;exitDx=0;exitDy=0;entryX=0.5;entryY=0;entryDx=0;entryDy=0;" parent="RIJwRYrqJC1lwtHgleIF-1" source="RIJwRYrqJC1lwtHgleIF-12" target="RIJwRYrqJC1lwtHgleIF-15" edge="1">
          <mxGeometry relative="1" as="geometry" />
        </mxCell>
        <mxCell id="RIJwRYrqJC1lwtHgleIF-12" value="&lt;font style=&quot;font-size: 18px; color: rgb(255, 255, 255);&quot;&gt;All requestAnimationFrame()&lt;/font&gt;" style="rounded=0;whiteSpace=wrap;html=1;fillColor=#43A047;" parent="RIJwRYrqJC1lwtHgleIF-1" vertex="1">
          <mxGeometry x="270.25" y="373" width="250" height="38" as="geometry" />
        </mxCell>
        <mxCell id="RIJwRYrqJC1lwtHgleIF-13" value="" style="endArrow=classic;html=1;rounded=0;entryX=0.5;entryY=0;entryDx=0;entryDy=0;exitX=0.5;exitY=1;exitDx=0;exitDy=0;" parent="RIJwRYrqJC1lwtHgleIF-1" source="RIJwRYrqJC1lwtHgleIF-10" target="RIJwRYrqJC1lwtHgleIF-12" edge="1">
          <mxGeometry width="50" height="50" relative="1" as="geometry">
            <mxPoint x="470.5" y="343.77499999999986" as="sourcePoint" />
            <mxPoint x="340" y="454.55" as="targetPoint" />
            <Array as="points" />
          </mxGeometry>
        </mxCell>
        <mxCell id="RIJwRYrqJC1lwtHgleIF-14" value="&lt;font style=&quot;font-size: 18px;&quot;&gt;Yes&lt;/font&gt;" style="text;html=1;align=center;verticalAlign=middle;whiteSpace=wrap;rounded=0;" parent="RIJwRYrqJC1lwtHgleIF-1" vertex="1">
          <mxGeometry x="387.25" y="333.55" width="60" height="30" as="geometry" />
        </mxCell>
        <mxCell id="RIJwRYrqJC1lwtHgleIF-15" value="&lt;font style=&quot;font-size: 18px;&quot;&gt;All MicroTasks&lt;/font&gt;" style="rounded=0;whiteSpace=wrap;html=1;fillColor=#FB8C00;" parent="RIJwRYrqJC1lwtHgleIF-1" vertex="1">
          <mxGeometry x="270.25" y="438" width="250" height="40" as="geometry" />
        </mxCell>
        <mxCell id="RIJwRYrqJC1lwtHgleIF-16" value="&lt;font style=&quot;font-size: 18px;&quot;&gt;Free time?*&lt;/font&gt;" style="rhombus;whiteSpace=wrap;html=1;fillColor=#EEEEEE;" parent="RIJwRYrqJC1lwtHgleIF-1" vertex="1">
          <mxGeometry x="269.25" y="826" width="250" height="41.55" as="geometry" />
        </mxCell>
        <mxCell id="RIJwRYrqJC1lwtHgleIF-17" value="" style="edgeStyle=orthogonalEdgeStyle;rounded=0;orthogonalLoop=1;jettySize=auto;html=1;" parent="RIJwRYrqJC1lwtHgleIF-1" source="RIJwRYrqJC1lwtHgleIF-18" target="RIJwRYrqJC1lwtHgleIF-7" edge="1">
          <mxGeometry relative="1" as="geometry" />
        </mxCell>
        <mxCell id="RIJwRYrqJC1lwtHgleIF-18" value="&lt;font style=&quot;font-size: 18px; color: rgb(255, 255, 255);&quot;&gt;One requestIdleCallback()&lt;/font&gt;" style="rounded=0;whiteSpace=wrap;html=1;fillColor=#8E24AA;" parent="RIJwRYrqJC1lwtHgleIF-1" vertex="1">
          <mxGeometry x="269.25" y="896" width="250" height="40" as="geometry" />
        </mxCell>
        <mxCell id="RIJwRYrqJC1lwtHgleIF-19" style="edgeStyle=orthogonalEdgeStyle;rounded=0;orthogonalLoop=1;jettySize=auto;html=1;exitX=0.5;exitY=1;exitDx=0;exitDy=0;entryX=0.503;entryY=0.037;entryDx=0;entryDy=0;entryPerimeter=0;" parent="RIJwRYrqJC1lwtHgleIF-1" source="RIJwRYrqJC1lwtHgleIF-20" target="RIJwRYrqJC1lwtHgleIF-25" edge="1">
          <mxGeometry relative="1" as="geometry" />
        </mxCell>
        <mxCell id="RIJwRYrqJC1lwtHgleIF-20" value="&lt;font style=&quot;font-size: 18px; color: rgb(255, 255, 255);&quot;&gt;Render&lt;/font&gt;" style="rounded=1;whiteSpace=wrap;html=1;fillColor=#1565C0;strokeColor=#000000;shadow=1;glass=0;strokeWidth=6;" parent="RIJwRYrqJC1lwtHgleIF-1" vertex="1">
          <mxGeometry x="270.25" y="569.55" width="250" height="40" as="geometry" />
        </mxCell>
        <mxCell id="RIJwRYrqJC1lwtHgleIF-21" value="&lt;font style=&quot;font-size: 18px;&quot;&gt;No&lt;/font&gt;" style="text;html=1;align=center;verticalAlign=middle;whiteSpace=wrap;rounded=0;" parent="RIJwRYrqJC1lwtHgleIF-1" vertex="1">
          <mxGeometry x="504.75" y="290" width="60" height="30" as="geometry" />
        </mxCell>
        <mxCell id="RIJwRYrqJC1lwtHgleIF-22" value="" style="endArrow=classic;html=1;rounded=0;exitX=0.5;exitY=1;exitDx=0;exitDy=0;entryX=0.5;entryY=0;entryDx=0;entryDy=0;" parent="RIJwRYrqJC1lwtHgleIF-1" source="RIJwRYrqJC1lwtHgleIF-16" target="RIJwRYrqJC1lwtHgleIF-18" edge="1">
          <mxGeometry width="50" height="50" relative="1" as="geometry">
            <mxPoint x="449.75" y="956" as="sourcePoint" />
            <mxPoint x="499.75" y="906" as="targetPoint" />
          </mxGeometry>
        </mxCell>
        <mxCell id="RIJwRYrqJC1lwtHgleIF-24" value="&lt;font style=&quot;font-size: 18px;&quot;&gt;Yes&lt;/font&gt;" style="text;html=1;align=center;verticalAlign=middle;whiteSpace=wrap;rounded=0;" parent="RIJwRYrqJC1lwtHgleIF-1" vertex="1">
          <mxGeometry x="382.75" y="864" width="60" height="30" as="geometry" />
        </mxCell>
        <mxCell id="RIJwRYrqJC1lwtHgleIF-25" value="&lt;font style=&quot;font-size: 20px;&quot;&gt;All MicroTasks&lt;/font&gt;" style="rounded=0;whiteSpace=wrap;html=1;fillColor=#FB8C00;glass=0;gradientColor=none;" parent="RIJwRYrqJC1lwtHgleIF-1" vertex="1">
          <mxGeometry x="269.25" y="629.55" width="250" height="40" as="geometry" />
        </mxCell>
        <mxCell id="RIJwRYrqJC1lwtHgleIF-26" value="" style="endArrow=none;html=1;rounded=0;entryX=0.5;entryY=1;entryDx=0;entryDy=0;" parent="RIJwRYrqJC1lwtHgleIF-1" source="RIJwRYrqJC1lwtHgleIF-28" target="RIJwRYrqJC1lwtHgleIF-7" edge="1">
          <mxGeometry width="50" height="50" relative="1" as="geometry">
            <mxPoint x="394.25" y="796" as="sourcePoint" />
            <mxPoint x="449.75" y="856" as="targetPoint" />
            <Array as="points">
              <mxPoint x="239.25" y="796" />
              <mxPoint x="239.25" y="1051" />
              <mxPoint x="394.25" y="1051" />
            </Array>
          </mxGeometry>
        </mxCell>
        <mxCell id="RIJwRYrqJC1lwtHgleIF-27" value="" style="edgeStyle=orthogonalEdgeStyle;rounded=0;orthogonalLoop=1;jettySize=auto;html=1;endArrow=none;startFill=0;" parent="RIJwRYrqJC1lwtHgleIF-1" source="RIJwRYrqJC1lwtHgleIF-28" target="RIJwRYrqJC1lwtHgleIF-30" edge="1">
          <mxGeometry relative="1" as="geometry" />
        </mxCell>
        <mxCell id="RIJwRYrqJC1lwtHgleIF-28" value="" style="shape=ellipse;fillColor=#0065FF;strokeColor=none;html=1;sketch=0;" parent="RIJwRYrqJC1lwtHgleIF-1" vertex="1">
          <mxGeometry x="389.25" y="791" width="10" height="10" as="geometry" />
        </mxCell>
        <mxCell id="RIJwRYrqJC1lwtHgleIF-29" value="&lt;font style=&quot;font-size: 18px;&quot;&gt;No&lt;/font&gt;" style="text;html=1;align=center;verticalAlign=middle;whiteSpace=wrap;rounded=0;" parent="RIJwRYrqJC1lwtHgleIF-1" vertex="1">
          <mxGeometry x="508" y="818" width="60" height="30" as="geometry" />
        </mxCell>
        <mxCell id="RIJwRYrqJC1lwtHgleIF-30" value="&lt;font style=&quot;color: rgb(0, 0, 0);&quot;&gt;&lt;span style=&quot;font-size: 18px;&quot;&gt;&lt;font style=&quot;color: rgb(0, 0, 0);&quot;&gt;No Macrotasks?&lt;/font&gt;&lt;/span&gt;&lt;/font&gt;" style="rhombus;whiteSpace=wrap;html=1;fillColor=#EEEEEE;" parent="RIJwRYrqJC1lwtHgleIF-1" vertex="1">
          <mxGeometry x="269.25" y="708.5" width="250" height="60" as="geometry" />
        </mxCell>
        <mxCell id="RIJwRYrqJC1lwtHgleIF-31" value="&lt;font style=&quot;font-size: 18px;&quot;&gt;Yes&lt;/font&gt;" style="text;html=1;align=center;verticalAlign=middle;whiteSpace=wrap;rounded=0;" parent="RIJwRYrqJC1lwtHgleIF-1" vertex="1">
          <mxGeometry x="382.75" y="764.5" width="60" height="30" as="geometry" />
        </mxCell>
        <mxCell id="RIJwRYrqJC1lwtHgleIF-32" value="" style="endArrow=none;html=1;rounded=0;exitX=1;exitY=0.5;exitDx=0;exitDy=0;strokeWidth=5;" parent="RIJwRYrqJC1lwtHgleIF-1" edge="1">
          <mxGeometry width="50" height="50" relative="1" as="geometry">
            <mxPoint x="579.25" y="737.5" as="sourcePoint" />
            <mxPoint x="579.25" y="738" as="targetPoint" />
          </mxGeometry>
        </mxCell>
        <mxCell id="RIJwRYrqJC1lwtHgleIF-33" value="" style="endArrow=none;html=1;rounded=0;exitX=1;exitY=0.5;exitDx=0;exitDy=0;strokeWidth=5;" parent="RIJwRYrqJC1lwtHgleIF-1" source="RIJwRYrqJC1lwtHgleIF-37" edge="1">
          <mxGeometry width="50" height="50" relative="1" as="geometry">
            <mxPoint x="517.25" y="738" as="sourcePoint" />
            <mxPoint x="614.75" y="738" as="targetPoint" />
          </mxGeometry>
        </mxCell>
        <mxCell id="RIJwRYrqJC1lwtHgleIF-34" value="&lt;font style=&quot;font-size: 18px;&quot;&gt;No&lt;/font&gt;" style="text;html=1;align=center;verticalAlign=middle;whiteSpace=wrap;rounded=0;" parent="RIJwRYrqJC1lwtHgleIF-1" vertex="1">
          <mxGeometry x="509.25" y="711" width="57.5" height="27" as="geometry" />
        </mxCell>
        <mxCell id="RIJwRYrqJC1lwtHgleIF-35" value="&lt;font style=&quot;font-size: 18px;&quot;&gt;&lt;span style=&quot;&quot; data-src-align=&quot;14:1&quot; class=&quot;EzKURWReUAB5oZgtQNkl&quot;&gt;Render?&lt;/span&gt;&lt;/font&gt;" style="rhombus;whiteSpace=wrap;html=1;fillColor=#EEEEEE;" parent="RIJwRYrqJC1lwtHgleIF-1" vertex="1">
          <mxGeometry x="270.25" y="498" width="250" height="41.55" as="geometry" />
        </mxCell>
        <mxCell id="RIJwRYrqJC1lwtHgleIF-36" value="" style="endArrow=none;html=1;rounded=0;exitX=1;exitY=0.5;exitDx=0;exitDy=0;strokeWidth=5;" parent="RIJwRYrqJC1lwtHgleIF-1" source="RIJwRYrqJC1lwtHgleIF-30" target="RIJwRYrqJC1lwtHgleIF-37" edge="1">
          <mxGeometry width="50" height="50" relative="1" as="geometry">
            <mxPoint x="517.75" y="739" as="sourcePoint" />
            <mxPoint x="614.75" y="738" as="targetPoint" />
          </mxGeometry>
        </mxCell>
        <mxCell id="RIJwRYrqJC1lwtHgleIF-37" value="" style="shape=ellipse;fillColor=#0065FF;strokeColor=none;html=1;sketch=0;" parent="RIJwRYrqJC1lwtHgleIF-1" vertex="1">
          <mxGeometry x="604.75" y="733.5" width="10" height="10" as="geometry" />
        </mxCell>
        <mxCell id="RIJwRYrqJC1lwtHgleIF-38" value="&lt;font style=&quot;font-size: 18px;&quot;&gt;Yes&lt;/font&gt;" style="text;html=1;align=center;verticalAlign=middle;whiteSpace=wrap;rounded=0;" parent="RIJwRYrqJC1lwtHgleIF-1" vertex="1">
          <mxGeometry x="387.25" y="534" width="60" height="30" as="geometry" />
        </mxCell>
        <mxCell id="RIJwRYrqJC1lwtHgleIF-39" value="&lt;font style=&quot;font-size: 18px;&quot;&gt;No&lt;/font&gt;" style="text;html=1;align=center;verticalAlign=middle;whiteSpace=wrap;rounded=0;" parent="RIJwRYrqJC1lwtHgleIF-1" vertex="1">
          <mxGeometry x="508.5" y="493" width="57.5" height="27" as="geometry" />
        </mxCell>
        <mxCell id="RIJwRYrqJC1lwtHgleIF-40" value="" style="endArrow=none;html=1;rounded=0;entryX=1;entryY=0.5;entryDx=0;entryDy=0;exitX=1;exitY=0.5;exitDx=0;exitDy=0;" parent="RIJwRYrqJC1lwtHgleIF-1" source="RIJwRYrqJC1lwtHgleIF-5" target="RIJwRYrqJC1lwtHgleIF-35" edge="1">
          <mxGeometry width="50" height="50" relative="1" as="geometry">
            <mxPoint x="384.75" y="698" as="sourcePoint" />
            <mxPoint x="434.75" y="648" as="targetPoint" />
            <Array as="points">
              <mxPoint x="564.75" y="683" />
              <mxPoint x="564.75" y="518" />
            </Array>
          </mxGeometry>
        </mxCell>
        <mxCell id="RIJwRYrqJC1lwtHgleIF-41" value="" style="endArrow=none;html=1;rounded=0;exitX=1;exitY=0.5;exitDx=0;exitDy=0;" parent="RIJwRYrqJC1lwtHgleIF-1" source="RIJwRYrqJC1lwtHgleIF-10" edge="1">
          <mxGeometry width="50" height="50" relative="1" as="geometry">
            <mxPoint x="424.75" y="558" as="sourcePoint" />
            <mxPoint x="564.75" y="518" as="targetPoint" />
            <Array as="points">
              <mxPoint x="564.75" y="314" />
            </Array>
          </mxGeometry>
        </mxCell>
        <mxCell id="RIJwRYrqJC1lwtHgleIF-42" value="" style="shape=ellipse;fillColor=#0065FF;strokeColor=none;html=1;sketch=0;" parent="RIJwRYrqJC1lwtHgleIF-1" vertex="1">
          <mxGeometry x="559" y="512.78" width="10" height="10" as="geometry" />
        </mxCell>
        <mxCell id="RIJwRYrqJC1lwtHgleIF-43" value="" style="endArrow=classic;html=1;rounded=0;exitX=0.5;exitY=1;exitDx=0;exitDy=0;entryX=0.5;entryY=0;entryDx=0;entryDy=0;" parent="RIJwRYrqJC1lwtHgleIF-1" source="RIJwRYrqJC1lwtHgleIF-15" target="RIJwRYrqJC1lwtHgleIF-35" edge="1">
          <mxGeometry width="50" height="50" relative="1" as="geometry">
            <mxPoint x="334.75" y="568" as="sourcePoint" />
            <mxPoint x="384.75" y="518" as="targetPoint" />
          </mxGeometry>
        </mxCell>
        <mxCell id="RIJwRYrqJC1lwtHgleIF-44" value="" style="endArrow=classic;html=1;rounded=0;exitX=0.5;exitY=1;exitDx=0;exitDy=0;entryX=0.5;entryY=0;entryDx=0;entryDy=0;" parent="RIJwRYrqJC1lwtHgleIF-1" source="RIJwRYrqJC1lwtHgleIF-35" target="RIJwRYrqJC1lwtHgleIF-20" edge="1">
          <mxGeometry width="50" height="50" relative="1" as="geometry">
            <mxPoint x="334.75" y="568" as="sourcePoint" />
            <mxPoint x="384.75" y="518" as="targetPoint" />
          </mxGeometry>
        </mxCell>
        <mxCell id="RIJwRYrqJC1lwtHgleIF-45" value="" style="ellipse;shape=cloud;whiteSpace=wrap;html=1;fillColor=#464646;gradientColor=none;strokeColor=#666666;" parent="RIJwRYrqJC1lwtHgleIF-1" vertex="1">
          <mxGeometry x="214" y="416" width="360" height="80" as="geometry" />
        </mxCell>
        <mxCell id="RIJwRYrqJC1lwtHgleIF-47" value="" style="ellipse;shape=cloud;whiteSpace=wrap;html=1;fillColor=#464646;gradientColor=none;strokeColor=#666666;" parent="RIJwRYrqJC1lwtHgleIF-1" vertex="1">
          <mxGeometry x="214" y="609.55" width="360" height="80" as="geometry" />
        </mxCell>
        <mxCell id="RIJwRYrqJC1lwtHgleIF-48" value="" style="ellipse;shape=cloud;whiteSpace=wrap;html=1;fillColor=#464646;gradientColor=none;strokeColor=#666666;" parent="RIJwRYrqJC1lwtHgleIF-1" vertex="1">
          <mxGeometry x="209" y="948" width="360" height="80" as="geometry" />
        </mxCell>
        <mxCell id="KQjIDNeXyNSuxMPOyvz0-4" value="&lt;font style=&quot;font-size: 18px;&quot;&gt;One MacroTask&lt;/font&gt;" style="rounded=0;whiteSpace=wrap;html=1;fillColor=#FBC02D;" vertex="1" parent="RIJwRYrqJC1lwtHgleIF-1">
          <mxGeometry x="288.25" y="132" width="250" height="40" as="geometry" />
        </mxCell>
        <mxCell id="KQjIDNeXyNSuxMPOyvz0-5" value="&lt;font style=&quot;font-size: 18px;&quot;&gt;One MacroTask&lt;/font&gt;" style="rounded=0;whiteSpace=wrap;html=1;fillColor=#FBC02D;" vertex="1" parent="RIJwRYrqJC1lwtHgleIF-1">
          <mxGeometry x="280.25" y="140" width="250" height="40" as="geometry" />
        </mxCell>
        <mxCell id="KQjIDNeXyNSuxMPOyvz0-6" value="&lt;font style=&quot;font-size: 18px;&quot;&gt;One MacroTask&lt;/font&gt;" style="rounded=0;whiteSpace=wrap;html=1;fillColor=#FBC02D;" vertex="1" parent="RIJwRYrqJC1lwtHgleIF-1">
          <mxGeometry x="270.25" y="148" width="250" height="40" as="geometry" />
        </mxCell>
        <mxCell id="KQjIDNeXyNSuxMPOyvz0-7" value="" style="endArrow=classic;html=1;rounded=0;exitX=1.016;exitY=0.495;exitDx=0;exitDy=0;entryX=0.5;entryY=0;entryDx=0;entryDy=0;strokeWidth=5;exitPerimeter=0;" edge="1" parent="RIJwRYrqJC1lwtHgleIF-1" target="KQjIDNeXyNSuxMPOyvz0-6">
          <mxGeometry width="50" height="50" relative="1" as="geometry">
            <mxPoint x="523.75" y="847" as="sourcePoint" />
            <mxPoint x="425.25" y="148" as="targetPoint" />
            <Array as="points">
              <mxPoint x="610.25" y="847" />
              <mxPoint x="610.25" y="754" />
              <mxPoint x="610.75" y="100" />
              <mxPoint x="395.75" y="100" />
            </Array>
          </mxGeometry>
        </mxCell>
      </root>
    </mxGraphModel>
  </diagram>
  <diagram name="8" id="RX9z5xSP2GHp_ma0-Kx9">
    <mxGraphModel dx="1000" dy="683" grid="1" gridSize="10" guides="1" tooltips="1" connect="1" arrows="1" fold="1" page="1" pageScale="1" pageWidth="827" pageHeight="1169" math="0" shadow="0">
      <root>
        <mxCell id="aNaBqbTfc2ncSU8pMlWI-0" />
        <mxCell id="aNaBqbTfc2ncSU8pMlWI-1" parent="aNaBqbTfc2ncSU8pMlWI-0" />
        <mxCell id="t1uQHGPPH4uchPDtk0Yx-1" value="&lt;font style=&quot;font-size: 18px;&quot;&gt;One MacroTask&lt;/font&gt;" style="rounded=0;whiteSpace=wrap;html=1;fillColor=#FBC02D;" vertex="1" parent="aNaBqbTfc2ncSU8pMlWI-1">
          <mxGeometry x="273.5" y="132" width="250" height="40" as="geometry" />
        </mxCell>
        <mxCell id="t1uQHGPPH4uchPDtk0Yx-0" value="&lt;font style=&quot;font-size: 18px;&quot;&gt;One MacroTask&lt;/font&gt;" style="rounded=0;whiteSpace=wrap;html=1;fillColor=#FBC02D;" vertex="1" parent="aNaBqbTfc2ncSU8pMlWI-1">
          <mxGeometry x="265.5" y="140" width="250" height="40" as="geometry" />
        </mxCell>
        <mxCell id="aNaBqbTfc2ncSU8pMlWI-2" value="" style="endArrow=classic;html=1;rounded=0;exitX=0.5;exitY=1;exitDx=0;exitDy=0;entryX=0.5;entryY=0;entryDx=0;entryDy=0;" parent="aNaBqbTfc2ncSU8pMlWI-1" source="aNaBqbTfc2ncSU8pMlWI-30" target="aNaBqbTfc2ncSU8pMlWI-16" edge="1">
          <mxGeometry width="50" height="50" relative="1" as="geometry">
            <mxPoint x="362.5" y="778" as="sourcePoint" />
            <mxPoint x="412.5" y="728" as="targetPoint" />
          </mxGeometry>
        </mxCell>
        <mxCell id="aNaBqbTfc2ncSU8pMlWI-3" value="" style="endArrow=classic;html=1;rounded=0;exitX=0.5;exitY=1;exitDx=0;exitDy=0;entryX=0.5;entryY=0;entryDx=0;entryDy=0;" parent="aNaBqbTfc2ncSU8pMlWI-1" source="aNaBqbTfc2ncSU8pMlWI-25" target="aNaBqbTfc2ncSU8pMlWI-30" edge="1">
          <mxGeometry width="50" height="50" relative="1" as="geometry">
            <mxPoint x="360.5" y="708" as="sourcePoint" />
            <mxPoint x="410.5" y="658" as="targetPoint" />
          </mxGeometry>
        </mxCell>
        <mxCell id="aNaBqbTfc2ncSU8pMlWI-4" style="edgeStyle=orthogonalEdgeStyle;rounded=0;orthogonalLoop=1;jettySize=auto;html=1;exitX=0.5;exitY=1;exitDx=0;exitDy=0;entryX=0.5;entryY=0;entryDx=0;entryDy=0;" parent="aNaBqbTfc2ncSU8pMlWI-1" source="aNaBqbTfc2ncSU8pMlWI-6" target="aNaBqbTfc2ncSU8pMlWI-9" edge="1">
          <mxGeometry relative="1" as="geometry" />
        </mxCell>
        <mxCell id="aNaBqbTfc2ncSU8pMlWI-5" value="" style="shape=ellipse;fillColor=#0065FF;strokeColor=none;html=1;sketch=0;" parent="aNaBqbTfc2ncSU8pMlWI-1" vertex="1">
          <mxGeometry x="375" y="678" width="10" height="10" as="geometry" />
        </mxCell>
        <mxCell id="aNaBqbTfc2ncSU8pMlWI-6" value="&lt;font style=&quot;font-size: 18px;&quot;&gt;One MacroTask&lt;/font&gt;" style="rounded=0;whiteSpace=wrap;html=1;fillColor=#FBC02D;" parent="aNaBqbTfc2ncSU8pMlWI-1" vertex="1">
          <mxGeometry x="255.5" y="148" width="250" height="40" as="geometry" />
        </mxCell>
        <mxCell id="aNaBqbTfc2ncSU8pMlWI-7" value="&lt;font style=&quot;font-size: 18px;&quot;&gt;All MicroTasks&lt;/font&gt;" style="rounded=0;whiteSpace=wrap;html=1;fillColor=#FB8C00;" parent="aNaBqbTfc2ncSU8pMlWI-1" vertex="1">
          <mxGeometry x="254.75" y="971" width="250" height="40" as="geometry" />
        </mxCell>
        <mxCell id="aNaBqbTfc2ncSU8pMlWI-8" style="edgeStyle=orthogonalEdgeStyle;rounded=0;orthogonalLoop=1;jettySize=auto;html=1;exitX=0.5;exitY=1;exitDx=0;exitDy=0;entryX=0.5;entryY=0;entryDx=0;entryDy=0;" parent="aNaBqbTfc2ncSU8pMlWI-1" source="aNaBqbTfc2ncSU8pMlWI-9" target="aNaBqbTfc2ncSU8pMlWI-10" edge="1">
          <mxGeometry relative="1" as="geometry" />
        </mxCell>
        <mxCell id="aNaBqbTfc2ncSU8pMlWI-9" value="&lt;font style=&quot;font-size: 18px;&quot;&gt;All MicroTasks&lt;/font&gt;" style="rounded=0;whiteSpace=wrap;html=1;fillColor=#FB8C00;" parent="aNaBqbTfc2ncSU8pMlWI-1" vertex="1">
          <mxGeometry x="255.75" y="218" width="250" height="40" as="geometry" />
        </mxCell>
        <mxCell id="aNaBqbTfc2ncSU8pMlWI-10" value="&lt;font style=&quot;font-size: 18px;&quot;&gt;Next Frame?&lt;/font&gt;" style="rhombus;whiteSpace=wrap;html=1;fillColor=#EEEEEE;" parent="aNaBqbTfc2ncSU8pMlWI-1" vertex="1">
          <mxGeometry x="255.75" y="290" width="250" height="48" as="geometry" />
        </mxCell>
        <mxCell id="aNaBqbTfc2ncSU8pMlWI-11" style="edgeStyle=orthogonalEdgeStyle;rounded=0;orthogonalLoop=1;jettySize=auto;html=1;exitX=0.5;exitY=1;exitDx=0;exitDy=0;entryX=0.5;entryY=0;entryDx=0;entryDy=0;" parent="aNaBqbTfc2ncSU8pMlWI-1" source="aNaBqbTfc2ncSU8pMlWI-12" target="aNaBqbTfc2ncSU8pMlWI-15" edge="1">
          <mxGeometry relative="1" as="geometry" />
        </mxCell>
        <mxCell id="aNaBqbTfc2ncSU8pMlWI-12" value="&lt;font style=&quot;font-size: 18px; color: rgb(255, 255, 255);&quot;&gt;All requestAnimationFrame()&lt;/font&gt;" style="rounded=0;whiteSpace=wrap;html=1;fillColor=#43A047;" parent="aNaBqbTfc2ncSU8pMlWI-1" vertex="1">
          <mxGeometry x="256" y="373" width="250" height="38" as="geometry" />
        </mxCell>
        <mxCell id="aNaBqbTfc2ncSU8pMlWI-13" value="" style="endArrow=classic;html=1;rounded=0;entryX=0.5;entryY=0;entryDx=0;entryDy=0;exitX=0.5;exitY=1;exitDx=0;exitDy=0;" parent="aNaBqbTfc2ncSU8pMlWI-1" source="aNaBqbTfc2ncSU8pMlWI-10" target="aNaBqbTfc2ncSU8pMlWI-12" edge="1">
          <mxGeometry width="50" height="50" relative="1" as="geometry">
            <mxPoint x="456.25" y="343.77499999999986" as="sourcePoint" />
            <mxPoint x="325.75" y="454.55" as="targetPoint" />
            <Array as="points" />
          </mxGeometry>
        </mxCell>
        <mxCell id="aNaBqbTfc2ncSU8pMlWI-14" value="&lt;font style=&quot;font-size: 18px;&quot;&gt;Yes&lt;/font&gt;" style="text;html=1;align=center;verticalAlign=middle;whiteSpace=wrap;rounded=0;" parent="aNaBqbTfc2ncSU8pMlWI-1" vertex="1">
          <mxGeometry x="373" y="333.55" width="60" height="30" as="geometry" />
        </mxCell>
        <mxCell id="aNaBqbTfc2ncSU8pMlWI-15" value="&lt;font style=&quot;font-size: 18px;&quot;&gt;All MicroTasks&lt;/font&gt;" style="rounded=0;whiteSpace=wrap;html=1;fillColor=#FB8C00;" parent="aNaBqbTfc2ncSU8pMlWI-1" vertex="1">
          <mxGeometry x="256" y="438" width="250" height="40" as="geometry" />
        </mxCell>
        <mxCell id="aNaBqbTfc2ncSU8pMlWI-16" value="&lt;font style=&quot;font-size: 18px;&quot;&gt;Free time?*&lt;/font&gt;" style="rhombus;whiteSpace=wrap;html=1;fillColor=#EEEEEE;" parent="aNaBqbTfc2ncSU8pMlWI-1" vertex="1">
          <mxGeometry x="255" y="826" width="250" height="41.55" as="geometry" />
        </mxCell>
        <mxCell id="aNaBqbTfc2ncSU8pMlWI-17" value="" style="edgeStyle=orthogonalEdgeStyle;rounded=0;orthogonalLoop=1;jettySize=auto;html=1;" parent="aNaBqbTfc2ncSU8pMlWI-1" source="aNaBqbTfc2ncSU8pMlWI-18" target="aNaBqbTfc2ncSU8pMlWI-7" edge="1">
          <mxGeometry relative="1" as="geometry" />
        </mxCell>
        <mxCell id="aNaBqbTfc2ncSU8pMlWI-18" value="&lt;font style=&quot;font-size: 18px; color: rgb(255, 255, 255);&quot;&gt;One requestIdleCallback()&lt;/font&gt;" style="rounded=0;whiteSpace=wrap;html=1;fillColor=#8E24AA;" parent="aNaBqbTfc2ncSU8pMlWI-1" vertex="1">
          <mxGeometry x="255" y="896" width="250" height="40" as="geometry" />
        </mxCell>
        <mxCell id="aNaBqbTfc2ncSU8pMlWI-19" style="edgeStyle=orthogonalEdgeStyle;rounded=0;orthogonalLoop=1;jettySize=auto;html=1;exitX=0.5;exitY=1;exitDx=0;exitDy=0;entryX=0.503;entryY=0.037;entryDx=0;entryDy=0;entryPerimeter=0;" parent="aNaBqbTfc2ncSU8pMlWI-1" source="aNaBqbTfc2ncSU8pMlWI-20" target="aNaBqbTfc2ncSU8pMlWI-25" edge="1">
          <mxGeometry relative="1" as="geometry" />
        </mxCell>
        <mxCell id="aNaBqbTfc2ncSU8pMlWI-20" value="&lt;font style=&quot;font-size: 18px; color: rgb(255, 255, 255);&quot;&gt;Render&lt;/font&gt;" style="rounded=1;whiteSpace=wrap;html=1;fillColor=#1565C0;strokeColor=#000000;shadow=1;glass=0;strokeWidth=6;" parent="aNaBqbTfc2ncSU8pMlWI-1" vertex="1">
          <mxGeometry x="256" y="569.55" width="250" height="40" as="geometry" />
        </mxCell>
        <mxCell id="aNaBqbTfc2ncSU8pMlWI-21" value="&lt;font style=&quot;font-size: 18px;&quot;&gt;No&lt;/font&gt;" style="text;html=1;align=center;verticalAlign=middle;whiteSpace=wrap;rounded=0;" parent="aNaBqbTfc2ncSU8pMlWI-1" vertex="1">
          <mxGeometry x="490.5" y="290" width="60" height="30" as="geometry" />
        </mxCell>
        <mxCell id="aNaBqbTfc2ncSU8pMlWI-22" value="" style="endArrow=classic;html=1;rounded=0;exitX=0.5;exitY=1;exitDx=0;exitDy=0;entryX=0.5;entryY=0;entryDx=0;entryDy=0;" parent="aNaBqbTfc2ncSU8pMlWI-1" source="aNaBqbTfc2ncSU8pMlWI-16" target="aNaBqbTfc2ncSU8pMlWI-18" edge="1">
          <mxGeometry width="50" height="50" relative="1" as="geometry">
            <mxPoint x="435.5" y="956" as="sourcePoint" />
            <mxPoint x="485.5" y="906" as="targetPoint" />
          </mxGeometry>
        </mxCell>
        <mxCell id="aNaBqbTfc2ncSU8pMlWI-23" value="" style="endArrow=classic;html=1;rounded=0;exitX=1.016;exitY=0.495;exitDx=0;exitDy=0;entryX=0.5;entryY=0;entryDx=0;entryDy=0;strokeWidth=5;exitPerimeter=0;" parent="aNaBqbTfc2ncSU8pMlWI-1" source="aNaBqbTfc2ncSU8pMlWI-16" target="aNaBqbTfc2ncSU8pMlWI-6" edge="1">
          <mxGeometry width="50" height="50" relative="1" as="geometry">
            <mxPoint x="533" y="856.7749999999999" as="sourcePoint" />
            <mxPoint x="410.5" y="148" as="targetPoint" />
            <Array as="points">
              <mxPoint x="595.5" y="847" />
              <mxPoint x="595.5" y="754" />
              <mxPoint x="596" y="100" />
              <mxPoint x="381" y="100" />
            </Array>
          </mxGeometry>
        </mxCell>
        <mxCell id="aNaBqbTfc2ncSU8pMlWI-24" value="&lt;font style=&quot;font-size: 18px;&quot;&gt;Yes&lt;/font&gt;" style="text;html=1;align=center;verticalAlign=middle;whiteSpace=wrap;rounded=0;" parent="aNaBqbTfc2ncSU8pMlWI-1" vertex="1">
          <mxGeometry x="368.5" y="864" width="60" height="30" as="geometry" />
        </mxCell>
        <mxCell id="aNaBqbTfc2ncSU8pMlWI-25" value="&lt;font style=&quot;font-size: 20px;&quot;&gt;All MicroTasks&lt;/font&gt;" style="rounded=0;whiteSpace=wrap;html=1;fillColor=#FB8C00;glass=0;gradientColor=none;" parent="aNaBqbTfc2ncSU8pMlWI-1" vertex="1">
          <mxGeometry x="255" y="629.55" width="250" height="40" as="geometry" />
        </mxCell>
        <mxCell id="aNaBqbTfc2ncSU8pMlWI-26" value="" style="endArrow=none;html=1;rounded=0;entryX=0.5;entryY=1;entryDx=0;entryDy=0;" parent="aNaBqbTfc2ncSU8pMlWI-1" source="aNaBqbTfc2ncSU8pMlWI-28" target="aNaBqbTfc2ncSU8pMlWI-7" edge="1">
          <mxGeometry width="50" height="50" relative="1" as="geometry">
            <mxPoint x="380" y="796" as="sourcePoint" />
            <mxPoint x="435.5" y="856" as="targetPoint" />
            <Array as="points">
              <mxPoint x="225" y="796" />
              <mxPoint x="225" y="1051" />
              <mxPoint x="380" y="1051" />
            </Array>
          </mxGeometry>
        </mxCell>
        <mxCell id="aNaBqbTfc2ncSU8pMlWI-27" value="" style="edgeStyle=orthogonalEdgeStyle;rounded=0;orthogonalLoop=1;jettySize=auto;html=1;endArrow=none;startFill=0;" parent="aNaBqbTfc2ncSU8pMlWI-1" source="aNaBqbTfc2ncSU8pMlWI-28" target="aNaBqbTfc2ncSU8pMlWI-30" edge="1">
          <mxGeometry relative="1" as="geometry" />
        </mxCell>
        <mxCell id="aNaBqbTfc2ncSU8pMlWI-28" value="" style="shape=ellipse;fillColor=#0065FF;strokeColor=none;html=1;sketch=0;" parent="aNaBqbTfc2ncSU8pMlWI-1" vertex="1">
          <mxGeometry x="375" y="791" width="10" height="10" as="geometry" />
        </mxCell>
        <mxCell id="aNaBqbTfc2ncSU8pMlWI-29" value="&lt;font style=&quot;font-size: 18px;&quot;&gt;No&lt;/font&gt;" style="text;html=1;align=center;verticalAlign=middle;whiteSpace=wrap;rounded=0;" parent="aNaBqbTfc2ncSU8pMlWI-1" vertex="1">
          <mxGeometry x="493.75" y="818" width="60" height="30" as="geometry" />
        </mxCell>
        <mxCell id="aNaBqbTfc2ncSU8pMlWI-30" value="&lt;font style=&quot;color: rgb(0, 0, 0);&quot;&gt;&lt;span style=&quot;font-size: 18px;&quot;&gt;&lt;font style=&quot;color: rgb(0, 0, 0);&quot;&gt;No Macrotasks?&lt;/font&gt;&lt;/span&gt;&lt;/font&gt;" style="rhombus;whiteSpace=wrap;html=1;fillColor=#EEEEEE;" parent="aNaBqbTfc2ncSU8pMlWI-1" vertex="1">
          <mxGeometry x="255" y="708.5" width="250" height="60" as="geometry" />
        </mxCell>
        <mxCell id="aNaBqbTfc2ncSU8pMlWI-31" value="&lt;font style=&quot;font-size: 18px;&quot;&gt;Yes&lt;/font&gt;" style="text;html=1;align=center;verticalAlign=middle;whiteSpace=wrap;rounded=0;" parent="aNaBqbTfc2ncSU8pMlWI-1" vertex="1">
          <mxGeometry x="368.5" y="764.5" width="60" height="30" as="geometry" />
        </mxCell>
        <mxCell id="aNaBqbTfc2ncSU8pMlWI-32" value="" style="endArrow=none;html=1;rounded=0;exitX=1;exitY=0.5;exitDx=0;exitDy=0;strokeWidth=5;" parent="aNaBqbTfc2ncSU8pMlWI-1" edge="1">
          <mxGeometry width="50" height="50" relative="1" as="geometry">
            <mxPoint x="565" y="737.5" as="sourcePoint" />
            <mxPoint x="565" y="738" as="targetPoint" />
          </mxGeometry>
        </mxCell>
        <mxCell id="aNaBqbTfc2ncSU8pMlWI-33" value="" style="endArrow=none;html=1;rounded=0;exitX=1;exitY=0.5;exitDx=0;exitDy=0;strokeWidth=5;" parent="aNaBqbTfc2ncSU8pMlWI-1" source="aNaBqbTfc2ncSU8pMlWI-37" edge="1">
          <mxGeometry width="50" height="50" relative="1" as="geometry">
            <mxPoint x="503" y="738" as="sourcePoint" />
            <mxPoint x="600.5" y="738" as="targetPoint" />
          </mxGeometry>
        </mxCell>
        <mxCell id="aNaBqbTfc2ncSU8pMlWI-34" value="&lt;font style=&quot;font-size: 18px;&quot;&gt;No&lt;/font&gt;" style="text;html=1;align=center;verticalAlign=middle;whiteSpace=wrap;rounded=0;" parent="aNaBqbTfc2ncSU8pMlWI-1" vertex="1">
          <mxGeometry x="495" y="711" width="57.5" height="27" as="geometry" />
        </mxCell>
        <mxCell id="aNaBqbTfc2ncSU8pMlWI-35" value="&lt;font style=&quot;font-size: 18px;&quot;&gt;&lt;span style=&quot;&quot; data-src-align=&quot;14:1&quot; class=&quot;EzKURWReUAB5oZgtQNkl&quot;&gt;Render?&lt;/span&gt;&lt;/font&gt;" style="rhombus;whiteSpace=wrap;html=1;fillColor=#EEEEEE;" parent="aNaBqbTfc2ncSU8pMlWI-1" vertex="1">
          <mxGeometry x="256" y="498" width="250" height="41.55" as="geometry" />
        </mxCell>
        <mxCell id="aNaBqbTfc2ncSU8pMlWI-36" value="" style="endArrow=none;html=1;rounded=0;exitX=1;exitY=0.5;exitDx=0;exitDy=0;strokeWidth=5;" parent="aNaBqbTfc2ncSU8pMlWI-1" source="aNaBqbTfc2ncSU8pMlWI-30" target="aNaBqbTfc2ncSU8pMlWI-37" edge="1">
          <mxGeometry width="50" height="50" relative="1" as="geometry">
            <mxPoint x="503.5" y="739" as="sourcePoint" />
            <mxPoint x="600.5" y="738" as="targetPoint" />
          </mxGeometry>
        </mxCell>
        <mxCell id="aNaBqbTfc2ncSU8pMlWI-37" value="" style="shape=ellipse;fillColor=#0065FF;strokeColor=none;html=1;sketch=0;" parent="aNaBqbTfc2ncSU8pMlWI-1" vertex="1">
          <mxGeometry x="590.5" y="733.5" width="10" height="10" as="geometry" />
        </mxCell>
        <mxCell id="aNaBqbTfc2ncSU8pMlWI-38" value="&lt;font style=&quot;font-size: 18px;&quot;&gt;Yes&lt;/font&gt;" style="text;html=1;align=center;verticalAlign=middle;whiteSpace=wrap;rounded=0;" parent="aNaBqbTfc2ncSU8pMlWI-1" vertex="1">
          <mxGeometry x="373" y="534" width="60" height="30" as="geometry" />
        </mxCell>
        <mxCell id="aNaBqbTfc2ncSU8pMlWI-39" value="&lt;font style=&quot;font-size: 18px;&quot;&gt;No&lt;/font&gt;" style="text;html=1;align=center;verticalAlign=middle;whiteSpace=wrap;rounded=0;" parent="aNaBqbTfc2ncSU8pMlWI-1" vertex="1">
          <mxGeometry x="494.25" y="493" width="57.5" height="27" as="geometry" />
        </mxCell>
        <mxCell id="aNaBqbTfc2ncSU8pMlWI-40" value="" style="endArrow=none;html=1;rounded=0;entryX=1;entryY=0.5;entryDx=0;entryDy=0;exitX=1;exitY=0.5;exitDx=0;exitDy=0;" parent="aNaBqbTfc2ncSU8pMlWI-1" source="aNaBqbTfc2ncSU8pMlWI-5" target="aNaBqbTfc2ncSU8pMlWI-35" edge="1">
          <mxGeometry width="50" height="50" relative="1" as="geometry">
            <mxPoint x="370.5" y="698" as="sourcePoint" />
            <mxPoint x="420.5" y="648" as="targetPoint" />
            <Array as="points">
              <mxPoint x="550.5" y="683" />
              <mxPoint x="550.5" y="518" />
            </Array>
          </mxGeometry>
        </mxCell>
        <mxCell id="aNaBqbTfc2ncSU8pMlWI-41" value="" style="endArrow=none;html=1;rounded=0;exitX=1;exitY=0.5;exitDx=0;exitDy=0;" parent="aNaBqbTfc2ncSU8pMlWI-1" source="aNaBqbTfc2ncSU8pMlWI-10" edge="1">
          <mxGeometry width="50" height="50" relative="1" as="geometry">
            <mxPoint x="410.5" y="558" as="sourcePoint" />
            <mxPoint x="550.5" y="518" as="targetPoint" />
            <Array as="points">
              <mxPoint x="550.5" y="314" />
            </Array>
          </mxGeometry>
        </mxCell>
        <mxCell id="aNaBqbTfc2ncSU8pMlWI-42" value="" style="shape=ellipse;fillColor=#0065FF;strokeColor=none;html=1;sketch=0;" parent="aNaBqbTfc2ncSU8pMlWI-1" vertex="1">
          <mxGeometry x="544.75" y="512.78" width="10" height="10" as="geometry" />
        </mxCell>
        <mxCell id="aNaBqbTfc2ncSU8pMlWI-43" value="" style="endArrow=classic;html=1;rounded=0;exitX=0.5;exitY=1;exitDx=0;exitDy=0;entryX=0.5;entryY=0;entryDx=0;entryDy=0;" parent="aNaBqbTfc2ncSU8pMlWI-1" source="aNaBqbTfc2ncSU8pMlWI-15" target="aNaBqbTfc2ncSU8pMlWI-35" edge="1">
          <mxGeometry width="50" height="50" relative="1" as="geometry">
            <mxPoint x="320.5" y="568" as="sourcePoint" />
            <mxPoint x="370.5" y="518" as="targetPoint" />
          </mxGeometry>
        </mxCell>
        <mxCell id="aNaBqbTfc2ncSU8pMlWI-44" value="" style="endArrow=classic;html=1;rounded=0;exitX=0.5;exitY=1;exitDx=0;exitDy=0;entryX=0.5;entryY=0;entryDx=0;entryDy=0;" parent="aNaBqbTfc2ncSU8pMlWI-1" source="aNaBqbTfc2ncSU8pMlWI-35" target="aNaBqbTfc2ncSU8pMlWI-20" edge="1">
          <mxGeometry width="50" height="50" relative="1" as="geometry">
            <mxPoint x="320.5" y="568" as="sourcePoint" />
            <mxPoint x="370.5" y="518" as="targetPoint" />
          </mxGeometry>
        </mxCell>
      </root>
    </mxGraphModel>
  </diagram>
</mxfile>
